<svg width="60" height="69" viewBox="0 0 60 69" fill="none" xmlns="http://www.w3.org/2000/svg">
<path d="M1.8873 0.714176C1.72944 0.487601 1.4178 0.431894 1.19123 0.589751C0.964652 0.747607 0.908945 1.05925 1.0668 1.28582L1.8873 0.714176ZM40.6461 54.1497L40.3428 54.5472L40.6461 54.1497ZM59.0953 62.1547C59.2997 61.9691 59.3149 61.6528 59.1292 61.4484L56.1036 58.1174C55.918 57.913 55.6018 57.8978 55.3973 58.0834C55.1929 58.2691 55.1777 58.5853 55.3634 58.7897L58.0528 61.7507L55.0918 64.4401C54.8874 64.6257 54.8722 64.9419 55.0579 65.1463C55.2436 65.3508 55.5598 65.366 55.7642 65.1803L59.0953 62.1547ZM2.92969 4.01959C3.08297 4.24928 3.39344 4.31122 3.62313 4.15793C3.85282 4.00465 3.91476 3.69418 3.76147 3.46449L2.92969 4.01959ZM7.36818 9.05447C7.22149 8.82051 6.91292 8.74977 6.67896 8.89646C6.445 9.04315 6.37426 9.35173 6.52095 9.58568L7.36818 9.05447ZM9.99794 15.2325C10.1414 15.4685 10.4489 15.5435 10.6849 15.4001C10.9209 15.2567 10.9959 14.9491 10.8525 14.7131L9.99794 15.2325ZM14.2939 20.3896C14.1504 20.1537 13.8429 20.0786 13.6069 20.2221C13.3709 20.3655 13.2959 20.6731 13.4393 20.909L14.2939 20.3896ZM16.9234 26.5677C17.0701 26.8017 17.3787 26.8724 17.6126 26.7257C17.8466 26.5791 17.9174 26.2705 17.7707 26.0365L16.9234 26.5677ZM21.3609 31.6035C21.2077 31.3737 20.8972 31.3117 20.6675 31.4648C20.4377 31.618 20.3757 31.9285 20.5289 32.1582L21.3609 31.6035ZM24.3357 37.6224C24.4987 37.8453 24.8115 37.8938 25.0344 37.7308C25.2573 37.5678 25.3058 37.2549 25.1428 37.032L24.3357 37.6224ZM29.1943 42.2507C29.0182 42.0381 28.703 42.0084 28.4903 42.1845C28.2776 42.3607 28.248 42.6759 28.4241 42.8885L29.1943 42.2507ZM32.871 47.8667C33.0632 48.0651 33.3797 48.0701 33.578 47.878C33.7764 47.6858 33.7814 47.3693 33.5893 47.1709L32.871 47.8667ZM38.3874 51.6849C38.1772 51.5058 37.8616 51.531 37.6825 51.7413C37.5035 51.9515 37.5287 52.267 37.7389 52.4461L38.3874 51.6849ZM44.4548 57.4601C44.6871 57.6093 44.9964 57.542 45.1457 57.3097C45.295 57.0773 45.2276 56.768 44.9953 56.6187L44.4548 57.4601ZM53.9319 60.6021C53.6634 60.5375 53.3934 60.7027 53.3287 60.9711C53.2641 61.2396 53.4293 61.5097 53.6977 61.5743L53.9319 60.6021ZM1.0668 1.28582C1.69514 2.18769 2.31564 3.09946 2.92969 4.01959L3.76147 3.46449C3.14409 2.53936 2.51982 1.62204 1.8873 0.714176L1.0668 1.28582ZM6.52095 9.58568C7.69114 11.452 8.84649 13.3381 9.99794 15.2325L10.8525 14.7131C9.69998 12.817 8.54193 10.9265 7.36818 9.05447L6.52095 9.58568ZM13.4393 20.909C14.5908 22.8034 15.7488 24.6939 16.9234 26.5677L17.7707 26.0365C16.5996 24.1684 15.4443 22.2823 14.2939 20.3896L13.4393 20.909ZM20.5289 32.1582C21.7657 34.0132 23.031 35.8389 24.3357 37.6224L25.1428 37.032C23.8481 35.2622 22.5912 33.4486 21.3609 31.6035L20.5289 32.1582ZM28.4241 42.8885C29.8495 44.6098 31.3279 46.2738 32.871 47.8667L33.5893 47.1709C32.0662 45.5987 30.6051 43.9543 29.1943 42.2507L28.4241 42.8885ZM37.7389 52.4461C38.587 53.1686 39.4545 53.8696 40.3428 54.5472L40.9493 53.7521C40.0758 53.0858 39.2223 52.3961 38.3874 51.6849L37.7389 52.4461ZM40.3428 54.5472C41.722 55.5992 43.081 56.5775 44.4548 57.4601L44.9953 56.6187C43.6512 55.7552 42.315 54.7939 40.9493 53.7521L40.3428 54.5472ZM53.6977 61.5743C55.2795 61.9553 56.9471 62.1981 58.7351 62.284L58.7831 61.2852C57.0564 61.2022 55.4512 60.9681 53.9319 60.6021L53.6977 61.5743ZM2.29755 0.428351C1.98184 -0.0247974 1.35855 -0.136211 0.905402 0.179501C0.452253 0.495214 0.340839 1.1185 0.656552 1.57165L2.29755 0.428351ZM40.6461 54.1497L40.0396 54.9448L40.6461 54.1497ZM59.4314 62.5248C59.8402 62.1535 59.8706 61.5211 59.4993 61.1123L53.4482 54.4501C53.0769 54.0413 52.4444 54.0109 52.0356 54.3822C51.6268 54.7536 51.5964 55.386 51.9677 55.7948L57.3465 61.7167L51.4246 67.0955C51.0158 67.4668 50.9854 68.0993 51.3567 68.5081C51.728 68.9169 52.3605 68.9473 52.7693 68.576L59.4314 62.5248ZM2.51379 4.29713C2.82036 4.75652 3.44129 4.8804 3.90068 4.57383C4.36006 4.26726 4.48394 3.64633 4.17737 3.18694L2.51379 4.29713ZM7.7918 8.78886C7.49842 8.32095 6.88127 8.17946 6.41335 8.47284C5.94544 8.76622 5.80395 9.38338 6.09733 9.85129L7.7918 8.78886ZM9.57068 15.4922C9.85753 15.9642 10.4727 16.1142 10.9446 15.8274C11.4166 15.5405 11.5666 14.9254 11.2797 14.4534L9.57068 15.4922ZM14.7211 20.1299C14.4343 19.658 13.8191 19.5079 13.3472 19.7948C12.8753 20.0817 12.7252 20.6968 13.0121 21.1687L14.7211 20.1299ZM16.4998 26.8333C16.7931 27.3012 17.4103 27.4427 17.8782 27.1494C18.3462 26.856 18.4877 26.2389 18.1943 25.771L16.4998 26.8333ZM21.7769 31.3261C21.4705 30.8666 20.8496 30.7425 20.3901 31.0488C19.9306 31.3552 19.8065 31.9761 20.1129 32.4356L21.7769 31.3261ZM23.9321 37.9176C24.2582 38.3634 24.8838 38.4604 25.3296 38.1344C25.7754 37.8083 25.8724 37.1826 25.5463 36.7368L23.9321 37.9176ZM29.5794 41.9318C29.2272 41.5065 28.5968 41.4472 28.1714 41.7994C27.746 42.1517 27.6868 42.7821 28.039 43.2075L29.5794 41.9318ZM32.5119 48.2146C32.8962 48.6113 33.5293 48.6214 33.9259 48.2371C34.3226 47.8528 34.3327 47.2197 33.9484 46.8231L32.5119 48.2146ZM38.7117 51.3043C38.2912 50.9461 37.6601 50.9966 37.3019 51.417C36.9438 51.8374 36.9943 52.4686 37.4147 52.8267L38.7117 51.3043ZM44.1845 57.8807C44.6492 58.1793 45.2679 58.0446 45.5664 57.5799C45.8649 57.1153 45.7302 56.4966 45.2655 56.1981L44.1845 57.8807ZM54.049 60.116C53.5121 59.9867 52.972 60.3171 52.8426 60.854C52.7133 61.391 53.0437 61.9311 53.5807 62.0604L54.049 60.116ZM0.656552 1.57165C1.2828 2.47051 1.90141 3.3795 2.51379 4.29713L4.17737 3.18694C3.55831 2.25931 2.93216 1.33922 2.29755 0.428351L0.656552 1.57165ZM6.09733 9.85129C7.26575 11.7148 8.41974 13.5987 9.57068 15.4922L11.2797 14.4534C10.1267 12.5565 8.96732 10.6637 7.7918 8.78886L6.09733 9.85129ZM13.0121 21.1687C14.164 23.0639 15.3234 24.9567 16.4998 26.8333L18.1943 25.771C17.025 23.9056 15.871 22.0217 14.7211 20.1299L13.0121 21.1687ZM20.1129 32.4356C21.353 34.2955 22.6225 36.1273 23.9321 37.9176L25.5463 36.7368C24.2567 34.9739 23.0039 33.1663 21.7769 31.3261L20.1129 32.4356ZM28.039 43.2075C29.4718 44.9376 30.9588 46.6114 32.5119 48.2146L33.9484 46.8231C32.4353 45.2611 30.9828 43.6265 29.5794 41.9318L28.039 43.2075ZM37.4147 52.8267C38.2693 53.5548 39.1438 54.2615 40.0396 54.9448L41.2526 53.3546C40.3864 52.6939 39.5399 52.0099 38.7117 51.3043L37.4147 52.8267ZM40.0396 54.9448C41.4255 56.0019 42.7959 56.9886 44.1845 57.8807L45.2655 56.1981C43.9363 55.3441 42.6116 54.3912 41.2526 53.3546L40.0396 54.9448ZM53.5807 62.0604C55.1937 62.4489 56.8924 62.6961 58.7111 62.7835L58.8071 60.7858C57.1111 60.7043 55.537 60.4745 54.049 60.116L53.5807 62.0604Z" fill="url(#paint0_linear)"/>
<defs>
<linearGradient id="paint0_linear" x1="56.9741" y1="48.5687" x2="-0.0807826" y2="15.628" gradientUnits="userSpaceOnUse">
<stop stop-color="#42BEAD"/>
<stop offset="0.8014" stop-color="#3EA57B"/>
<stop offset="1" stop-color="#3CA06F"/>
</linearGradient>
</defs>
</svg>
