<svg width="122" height="23" viewBox="0 0 122 23" fill="none" xmlns="http://www.w3.org/2000/svg">
<path d="M0.702096 21.5984C0.480319 21.763 0.433909 22.0761 0.598437 22.2979C0.762964 22.5197 1.07613 22.5661 1.2979 22.4016L0.702096 21.5984ZM48.4 5L48.3446 4.50308L48.4 5ZM100.77 6.99999L100.761 7.49991L100.77 6.99999ZM121.457 5.20224C121.569 4.9497 121.455 4.65442 121.202 4.54272L117.087 2.72244C116.834 2.61074 116.539 2.72492 116.427 2.97746C116.316 3.23 116.43 3.52528 116.682 3.63698L120.34 5.255L118.722 8.91314C118.611 9.16569 118.725 9.46096 118.977 9.57266C119.23 9.68437 119.525 9.57019 119.637 9.31765L121.457 5.20224ZM3.87824 20.5561C4.10567 20.3995 4.16306 20.0881 4.00643 19.8607C3.84981 19.6333 3.53847 19.5759 3.31104 19.7325L3.87824 20.5561ZM8.72577 16.2943C8.48713 16.4333 8.40632 16.7394 8.54527 16.978C8.68422 17.2167 8.99032 17.2975 9.22895 17.1585L8.72577 16.2943ZM14.8265 14.1927C15.0755 14.0734 15.1807 13.7748 15.0614 13.5257C14.9421 13.2767 14.6435 13.1715 14.3945 13.2908L14.8265 14.1927ZM20.2878 10.7561C20.0299 10.855 19.901 11.1441 19.9998 11.402C20.0987 11.6598 20.3878 11.7887 20.6457 11.6899L20.2878 10.7561ZM26.6465 9.65102C26.9111 9.57199 27.0615 9.29342 26.9825 9.02883C26.9035 8.76424 26.6249 8.61382 26.3603 8.69286L26.6465 9.65102ZM32.56 7.06879C32.2908 7.13012 32.1222 7.3981 32.1835 7.66735C32.2449 7.93659 32.5128 8.10515 32.7821 8.04382L32.56 7.06879ZM39.0098 6.80929C39.282 6.7627 39.4649 6.50428 39.4183 6.2321C39.3717 5.95991 39.1133 5.77704 38.8411 5.82363L39.0098 6.80929ZM45.1696 4.88303C44.8957 4.91817 44.7022 5.16869 44.7373 5.44259C44.7725 5.71648 45.023 5.91004 45.2969 5.8749L45.1696 4.88303ZM51.6929 5.22332C51.9686 5.20663 52.1785 4.96966 52.1618 4.69402C52.1451 4.41838 51.9081 4.20846 51.6325 4.22515L51.6929 5.22332ZM58.22 4.05861C57.9438 4.05756 57.7191 4.28056 57.718 4.5567C57.717 4.83284 57.94 5.05755 58.2161 5.05861L58.22 4.05861ZM64.7547 5.21677C65.0306 5.22819 65.2635 5.01378 65.2749 4.73787C65.2863 4.46196 65.0719 4.22904 64.796 4.21762L64.7547 5.21677ZM71.3574 4.56927C71.0818 4.5517 70.8442 4.76085 70.8266 5.03644C70.809 5.31202 71.0182 5.54967 71.2937 5.56724L71.3574 4.56927ZM77.8304 6.02744C78.1057 6.04821 78.3458 5.84183 78.3665 5.56647C78.3873 5.29111 78.1809 5.05105 77.9056 5.03028L77.8304 6.02744ZM84.4469 5.53591C84.1716 5.51456 83.9311 5.72043 83.9097 5.99575C83.8884 6.27107 84.0943 6.51156 84.3696 6.53291L84.4469 5.53591ZM90.9156 7.01857C91.1911 7.03749 91.4297 6.8295 91.4487 6.55401C91.4676 6.27852 91.2596 6.03984 90.9841 6.02092L90.9156 7.01857ZM97.519 6.39761C97.2431 6.38581 97.0099 6.5999 96.9981 6.87579C96.9863 7.15168 97.2004 7.3849 97.4763 7.3967L97.519 6.39761ZM105.883 7.58175C106.159 7.58312 106.384 7.36038 106.385 7.08424C106.387 6.8081 106.164 6.58314 105.888 6.58177L105.883 7.58175ZM115.986 5.87515C115.715 5.92544 115.536 6.18633 115.586 6.45785C115.636 6.72937 115.897 6.90871 116.169 6.85842L115.986 5.87515ZM1.2979 22.4016C2.15894 21.7628 3.01881 21.148 3.87824 20.5561L3.31104 19.7325C2.44181 20.3311 1.5724 20.9528 0.702096 21.5984L1.2979 22.4016ZM9.22895 17.1585C11.0873 16.0765 12.9507 15.0913 14.8265 14.1927L14.3945 13.2908C12.4944 14.201 10.6073 15.1988 8.72577 16.2943L9.22895 17.1585ZM20.6457 11.6899C22.6216 10.9325 24.6192 10.2566 26.6465 9.65102L26.3603 8.69286C24.31 9.30535 22.2884 9.98931 20.2878 10.7561L20.6457 11.6899ZM32.7821 8.04382C34.8196 7.57973 36.893 7.17164 39.0098 6.80929L38.8411 5.82363C36.7083 6.18872 34.617 6.60028 32.56 7.06879L32.7821 8.04382ZM45.2969 5.8749C46.3383 5.74129 47.3908 5.61566 48.4554 5.49692L48.3446 4.50308C47.2749 4.62239 46.2169 4.74867 45.1696 4.88303L45.2969 5.8749ZM48.4554 5.49692C49.4908 5.38143 50.5721 5.29117 51.6929 5.22332L51.6325 4.22515C50.4972 4.29387 49.399 4.38548 48.3446 4.50308L48.4554 5.49692ZM58.2161 5.05861C60.3283 5.06667 62.5182 5.1242 64.7547 5.21677L64.796 4.21762C62.5501 4.12466 60.3473 4.06673 58.22 4.05861L58.2161 5.05861ZM71.2937 5.56724C73.468 5.7059 75.6557 5.86342 77.8304 6.02744L77.9056 5.03028C75.7288 4.8661 73.5369 4.70827 71.3574 4.56927L71.2937 5.56724ZM84.3696 6.53291C86.6071 6.70644 88.8 6.87323 90.9156 7.01857L90.9841 6.02092C88.8732 5.8759 86.6839 5.70939 84.4469 5.53591L84.3696 6.53291ZM97.4763 7.3967C98.6122 7.44528 99.7094 7.48072 100.761 7.49991L100.779 6.50007C99.7372 6.48107 98.6483 6.44591 97.519 6.39761L97.4763 7.3967ZM100.761 7.49991C102.44 7.53053 104.159 7.5732 105.883 7.58175L105.888 6.58177C104.173 6.57326 102.467 6.53086 100.779 6.50007L100.761 7.49991ZM116.169 6.85842C117.877 6.54191 119.556 6.09444 121.18 5.46634L120.82 4.53364C119.262 5.1358 117.645 5.56796 115.986 5.87515L116.169 6.85842ZM0.404192 21.1969C-0.0393628 21.5259 -0.132183 22.1522 0.196873 22.5958C0.525929 23.0394 1.15225 23.1322 1.59581 22.8031L0.404192 21.1969ZM48.4 5L48.2892 4.00616L48.4 5ZM100.77 6.99999L100.752 7.99982L100.77 6.99999ZM121.915 5.40449C122.138 4.89941 121.91 4.30886 121.405 4.08545L113.174 0.444897C112.669 0.221494 112.078 0.449841 111.855 0.954926C111.631 1.46001 111.86 2.05056 112.365 2.27397L119.681 5.51002L116.445 12.8263C116.222 13.3314 116.45 13.9219 116.955 14.1453C117.46 14.3687 118.051 14.1404 118.274 13.6353L121.915 5.40449ZM4.16184 20.9679C4.61669 20.6546 4.73148 20.0319 4.41822 19.5771C4.10497 19.1222 3.4823 19.0075 3.02744 19.3207L4.16184 20.9679ZM8.47417 15.8623C7.9969 16.1402 7.83528 16.7524 8.11318 17.2296C8.39109 17.7069 9.00328 17.8685 9.48055 17.5906L8.47417 15.8623ZM15.0425 14.6436C15.5406 14.405 15.7509 13.8078 15.5123 13.3097C15.2737 12.8116 14.6765 12.6013 14.1784 12.8399L15.0425 14.6436ZM20.1088 10.2892C19.5931 10.4869 19.3353 11.0652 19.5329 11.5809C19.7306 12.0966 20.3089 12.3544 20.8246 12.1568L20.1088 10.2892ZM26.7896 10.1301C27.3188 9.97203 27.6197 9.4149 27.4616 8.88572C27.3035 8.35654 26.7464 8.0557 26.2172 8.21378L26.7896 10.1301ZM32.449 6.58128C31.9105 6.70393 31.5734 7.23989 31.696 7.77839C31.8187 8.31688 32.3546 8.65399 32.8931 8.53133L32.449 6.58128ZM39.0942 7.30212C39.6386 7.20894 40.0043 6.6921 39.9111 6.14774C39.8179 5.60337 39.3011 5.23761 38.7567 5.3308L39.0942 7.30212ZM45.106 4.38709C44.5582 4.45737 44.1711 4.95842 44.2414 5.50621C44.3117 6.05401 44.8127 6.44111 45.3605 6.37083L45.106 4.38709ZM51.7231 5.72241C52.2744 5.68903 52.6943 5.21508 52.6609 4.66381C52.6275 4.11253 52.1536 3.69269 51.6023 3.72606L51.7231 5.72241ZM58.2219 3.55862C57.6696 3.55651 57.2202 4.00251 57.2181 4.55479C57.2159 5.10707 57.6619 5.55649 58.2142 5.5586L58.2219 3.55862ZM64.734 5.71634C65.2858 5.73918 65.7516 5.31036 65.7745 4.75855C65.7973 4.20674 65.3685 3.74089 64.8167 3.71805L64.734 5.71634ZM71.3892 4.07028C70.838 4.03514 70.3627 4.45345 70.3276 5.00461C70.2924 5.55578 70.7108 6.03108 71.2619 6.06623L71.3892 4.07028ZM77.7927 6.52603C78.3435 6.56757 78.8236 6.15479 78.8651 5.60407C78.9067 5.05335 78.4939 4.57323 77.9432 4.53169L77.7927 6.52603ZM84.4856 5.0374C83.9349 4.9947 83.4539 5.40646 83.4112 5.95709C83.3685 6.50772 83.7803 6.98871 84.3309 7.03142L84.4856 5.0374ZM90.8813 7.51739C91.4323 7.55524 91.9096 7.13926 91.9475 6.58828C91.9853 6.03729 91.5694 5.55994 91.0184 5.52209L90.8813 7.51739ZM97.5404 5.89807C96.9886 5.87447 96.5221 6.30264 96.4986 6.85442C96.475 7.4062 96.9031 7.87264 97.4549 7.89624L97.5404 5.89807ZM105.881 8.08175C106.433 8.08449 106.883 7.639 106.885 7.08672C106.888 6.53444 106.443 6.08451 105.89 6.08177L105.881 8.08175ZM115.895 5.38351C115.352 5.4841 114.994 6.00587 115.094 6.54892C115.195 7.09196 115.717 7.45065 116.26 7.35006L115.895 5.38351ZM1.59581 22.8031C2.45221 22.1678 3.30732 21.5564 4.16184 20.9679L3.02744 19.3207C2.15331 19.9227 1.27913 20.5478 0.404192 21.1969L1.59581 22.8031ZM9.48055 17.5906C11.3272 16.5153 13.1788 15.5364 15.0425 14.6436L14.1784 12.8399C12.2663 13.7559 10.3673 14.76 8.47417 15.8623L9.48055 17.5906ZM20.8246 12.1568C22.7881 11.4042 24.7738 10.7323 26.7896 10.1301L26.2172 8.21378C24.1554 8.8297 22.1218 9.51769 20.1088 10.2892L20.8246 12.1568ZM32.8931 8.53133C34.9209 8.06946 36.9854 7.6631 39.0942 7.30212L38.7567 5.3308C36.6159 5.69726 34.5157 6.11055 32.449 6.58128L32.8931 8.53133ZM45.3605 6.37083C46.399 6.2376 47.4488 6.1123 48.5109 5.99384L48.2892 4.00616C47.217 4.12575 46.1562 4.25236 45.106 4.38709L45.3605 6.37083ZM48.5109 5.99384C49.5368 5.87941 50.6095 5.78982 51.7231 5.72241L51.6023 3.72606C50.4597 3.79523 49.353 3.8875 48.2892 4.00616L48.5109 5.99384ZM58.2142 5.5586C60.3188 5.56663 62.5023 5.62397 64.734 5.71634L64.8167 3.71805C62.566 3.62489 60.3568 3.56676 58.2219 3.55862L58.2142 5.5586ZM71.2619 6.06623C73.4335 6.20472 75.6191 6.36209 77.7927 6.52603L77.9432 4.53169C75.7654 4.36744 73.5714 4.20945 71.3892 4.07028L71.2619 6.06623ZM84.3309 7.03142C86.5687 7.20497 88.7635 7.3719 90.8813 7.51739L91.0184 5.52209C88.9098 5.37723 86.7223 5.21087 84.4856 5.0374L84.3309 7.03142ZM97.4549 7.89624C98.5941 7.94497 99.6954 7.98055 100.752 7.99982L100.788 6.00015C99.7512 5.98124 98.6664 5.94623 97.5404 5.89807L97.4549 7.89624ZM100.752 7.99982C102.427 8.03037 104.152 8.07318 105.881 8.08175L105.89 6.08177C104.18 6.07329 102.481 6.03102 100.788 6.00015L100.752 7.99982ZM116.26 7.35006C117.993 7.02889 119.703 6.57376 121.361 5.93269L120.639 4.06729C119.116 4.65648 117.529 5.08099 115.895 5.38351L116.26 7.35006Z" fill="url(#paint0_linear)"/>
<defs>
<linearGradient id="paint0_linear" x1="1.01463" y1="13.2812" x2="121.05" y2="13.2812" gradientUnits="userSpaceOnUse">
<stop stop-color="#ABD03B"/>
<stop offset="0.7057" stop-color="#65AC62"/>
<stop offset="1" stop-color="#3CA06F"/>
</linearGradient>
</defs>
</svg>
