<svg width="68" height="52" viewBox="0 0 68 52" fill="none" xmlns="http://www.w3.org/2000/svg">
<path d="M66.7273 1.22753C66.853 0.98164 66.7555 0.680428 66.5096 0.554748C66.2638 0.429067 65.9625 0.526511 65.8369 0.772395L66.7273 1.22753ZM0.517086 47.7988C0.445618 48.0655 0.603909 48.3397 0.87064 48.4111L5.21731 49.5758C5.48404 49.6473 5.75821 49.489 5.82968 49.2223C5.90115 48.9555 5.74286 48.6814 5.47613 48.6099L1.61242 47.5746L2.6477 43.7109C2.71917 43.4442 2.56088 43.17 2.29415 43.0985C2.02741 43.0271 1.75324 43.1854 1.68177 43.4521L0.517086 47.7988ZM64.2223 3.80371C64.0883 4.04513 64.1753 4.34951 64.4168 4.48355C64.6582 4.6176 64.9626 4.53054 65.0966 4.28911L64.2223 3.80371ZM61.5037 10.2157C61.6563 9.98559 61.5935 9.67531 61.3633 9.52272C61.1332 9.37013 60.8229 9.433 60.6703 9.66315L61.5037 10.2157ZM56.6269 15.1991C56.4536 15.414 56.4873 15.7288 56.7023 15.9022C56.9173 16.0755 57.232 16.0418 57.4054 15.8268L56.6269 15.1991ZM52.7692 20.9994C52.9643 20.804 52.9641 20.4874 52.7688 20.2923C52.5734 20.0971 52.2568 20.0973 52.0616 20.2927L52.7692 20.9994ZM46.969 24.8462C46.753 25.0183 46.7174 25.3329 46.8894 25.5489C47.0615 25.7649 47.376 25.8005 47.592 25.6284L46.969 24.8462ZM41.9291 29.645C42.1626 29.4976 42.2325 29.1889 42.0851 28.9553C41.9378 28.7218 41.629 28.6519 41.3954 28.7993L41.9291 29.645ZM35.4353 32.1686C35.1891 32.2936 35.0909 32.5946 35.216 32.8408C35.3411 33.087 35.6421 33.1852 35.8883 33.0601L35.4353 32.1686ZM29.6064 35.9787C29.8602 35.8699 29.9777 35.5759 29.8689 35.3221C29.7601 35.0684 29.4661 34.9509 29.2123 35.0597L29.6064 35.9787ZM22.8409 37.6542C22.5838 37.7551 22.4573 38.0453 22.5582 38.3023C22.6591 38.5594 22.9493 38.6859 23.2064 38.585L22.8409 37.6542ZM16.7885 41.0996C17.0451 40.9975 17.1704 40.7068 17.0684 40.4502C16.9664 40.1936 16.6756 40.0683 16.419 40.1704L16.7885 41.0996ZM10.0376 42.8287C9.785 42.9403 9.67074 43.2355 9.78236 43.4881C9.89399 43.7407 10.1892 43.855 10.4418 43.7433L10.0376 42.8287ZM4.25653 46.7089C4.50118 46.5808 4.5957 46.2787 4.46765 46.034C4.33959 45.7894 4.03744 45.6949 3.79279 45.8229L4.25653 46.7089ZM65.8369 0.772395C65.3039 1.81507 64.7657 2.82505 64.2223 3.80371L65.0966 4.28911C65.6456 3.30021 66.1893 2.28014 66.7273 1.22753L65.8369 0.772395ZM60.6703 9.66315C59.3475 11.6583 57.9989 13.4977 56.6269 15.1991L57.4054 15.8268C58.7974 14.1005 60.1644 12.2359 61.5037 10.2157L60.6703 9.66315ZM52.0616 20.2927C50.3922 21.9643 48.6933 23.4727 46.969 24.8462L47.592 25.6284C49.3453 24.2318 51.0724 22.6983 52.7692 20.9994L52.0616 20.2927ZM41.3954 28.7993C39.4347 30.0365 37.4465 31.1469 35.4353 32.1686L35.8883 33.0601C37.923 32.0264 39.9387 30.901 41.9291 29.645L41.3954 28.7993ZM29.2123 35.0597C27.1053 35.9633 24.9803 36.8141 22.8409 37.6542L23.2064 38.585C25.3492 37.7436 27.4853 36.8884 29.6064 35.9787L29.2123 35.0597ZM16.419 40.1704C14.2975 41.014 12.168 41.8872 10.0376 42.8287L10.4418 43.7433C12.5563 42.8088 14.6732 41.9408 16.7885 41.0996L16.419 40.1704ZM3.79279 45.8229C2.7773 46.3544 1.76284 46.9104 0.75005 47.4952L1.25005 48.3612C2.25012 47.7838 3.25245 47.2345 4.25653 46.7089L3.79279 45.8229ZM67.1725 1.45509C67.4239 0.963321 67.229 0.360896 66.7372 0.109535C66.2454 -0.141826 65.643 0.0530631 65.3917 0.544831L67.1725 1.45509ZM0.0341232 47.6693C-0.10882 48.2028 0.207762 48.7512 0.74123 48.8941L9.43456 51.2235C9.96803 51.3664 10.5164 51.0498 10.6593 50.5164C10.8023 49.9829 10.4857 49.4346 9.9522 49.2916L2.2248 47.2211L4.29535 39.4937C4.43829 38.9602 4.12171 38.4119 3.58824 38.2689C3.05477 38.126 2.50644 38.4425 2.36349 38.976L0.0341232 47.6693ZM63.7852 3.561C63.5171 4.04386 63.6912 4.65261 64.174 4.9207C64.6569 5.18878 65.2657 5.01467 65.5337 4.53182L63.7852 3.561ZM61.9205 10.492C62.2257 10.0317 62.0999 9.41117 61.6396 9.10599C61.1793 8.80081 60.5587 8.92656 60.2536 9.38686L61.9205 10.492ZM56.2377 14.8852C55.891 15.3151 55.9585 15.9447 56.3884 16.2914C56.8184 16.6381 57.4479 16.5706 57.7946 16.1407L56.2377 14.8852ZM53.123 21.3527C53.5133 20.9619 53.5129 20.3288 53.1221 19.9385C52.7313 19.5482 52.0982 19.5486 51.7079 19.9394L53.123 21.3527ZM46.6574 24.4552C46.2254 24.7993 46.1542 25.4284 46.4983 25.8604C46.8424 26.2924 47.4716 26.3636 47.9035 26.0195L46.6574 24.4552ZM42.1959 30.0679C42.663 29.7731 42.8027 29.1556 42.508 28.6885C42.2132 28.2214 41.5957 28.0817 41.1286 28.3764L42.1959 30.0679ZM35.2089 31.7228C34.7165 31.9729 34.5201 32.5749 34.7702 33.0673C35.0204 33.5597 35.6223 33.756 36.1147 33.5059L35.2089 31.7228ZM29.8035 36.4383C30.3111 36.2206 30.5461 35.6326 30.3284 35.1251C30.1107 34.6175 29.5228 34.3825 29.0152 34.6002L29.8035 36.4383ZM22.6581 37.1888C22.144 37.3906 21.8909 37.971 22.0928 38.4851C22.2947 38.9992 22.875 39.2523 23.3891 39.0504L22.6581 37.1888ZM16.9733 41.5642C17.4865 41.3601 17.7371 40.7786 17.533 40.2654C17.3289 39.7522 16.7475 39.5017 16.2343 39.7057L16.9733 41.5642ZM9.83545 42.3714C9.33031 42.5946 9.10178 43.1851 9.32504 43.6902C9.54829 44.1954 10.1388 44.4239 10.6439 44.2007L9.83545 42.3714ZM4.48839 47.1519C4.9777 46.8958 5.16675 46.2915 4.91064 45.8022C4.65452 45.3129 4.05024 45.1238 3.56093 45.3799L4.48839 47.1519ZM65.3917 0.544831C64.8612 1.58254 64.3257 2.58746 63.7852 3.561L65.5337 4.53182C66.0856 3.5378 66.6319 2.51267 67.1725 1.45509L65.3917 0.544831ZM60.2536 9.38686C58.9391 11.3695 57.5996 13.1963 56.2377 14.8852L57.7946 16.1407C59.1967 14.4018 60.5728 12.5247 61.9205 10.492L60.2536 9.38686ZM51.7079 19.9394C50.052 21.5973 48.3674 23.0931 46.6574 24.4552L47.9035 26.0195C49.6713 24.6114 51.4125 23.0653 53.123 21.3527L51.7079 19.9394ZM41.1286 28.3764C39.1828 29.6043 37.2082 30.7071 35.2089 31.7228L36.1147 33.5059C38.1613 32.4662 40.1906 31.3332 42.1959 30.0679L41.1286 28.3764ZM29.0152 34.6002C26.9153 35.5008 24.7959 36.3493 22.6581 37.1888L23.3891 39.0504C25.5336 38.2083 27.6753 37.351 29.8035 36.4383L29.0152 34.6002ZM16.2343 39.7057C14.1097 40.5506 11.9738 41.4263 9.83545 42.3714L10.6439 44.2007C12.7505 43.2696 14.861 42.4042 16.9733 41.5642L16.2343 39.7057ZM3.56093 45.3799C2.53973 45.9144 1.51919 46.4737 0.50005 47.0621L1.50005 48.7942C2.49376 48.2205 3.49002 47.6744 4.48839 47.1519L3.56093 45.3799Z" fill="url(#paint0_linear)"/>
<defs>
<linearGradient id="paint0_linear" x1="69.321" y1="6.2831" x2="0.0186324" y2="46.2949" gradientUnits="userSpaceOnUse">
<stop stop-color="#42BEAD"/>
<stop offset="0.4376" stop-color="#3195AC"/>
<stop offset="1" stop-color="#2364A4"/>
</linearGradient>
</defs>
</svg>
