<svg width="125" height="25" viewBox="0 0 125 25" fill="none" xmlns="http://www.w3.org/2000/svg">
<path d="M1.54603 1.06859C1.27635 1.00919 1.00958 1.17966 0.950181 1.44933C0.890782 1.71901 1.06125 1.98578 1.33093 2.04518L1.54603 1.06859ZM94.1253 20.077L94.1257 20.577L94.1253 20.077ZM123.528 15.2987C123.627 15.0411 123.499 14.7517 123.241 14.6522L119.043 13.032C118.785 12.9326 118.496 13.0608 118.397 13.3184C118.297 13.576 118.425 13.8655 118.683 13.9649L122.415 15.4051L120.974 19.1369C120.875 19.3945 121.003 19.6839 121.261 19.7834C121.519 19.8828 121.808 19.7545 121.907 19.4969L123.528 15.2987ZM4.62731 2.79069C4.89632 2.85305 5.16495 2.68553 5.22731 2.41652C5.28967 2.14751 5.12215 1.87888 4.85314 1.81652L4.62731 2.79069ZM11.4426 3.40903C11.1747 3.34192 10.9032 3.50465 10.8361 3.77252C10.769 4.04038 10.9317 4.31193 11.1996 4.37905L11.4426 3.40903ZM17.7505 6.06563C18.0175 6.13596 18.291 5.9765 18.3613 5.70946C18.4317 5.44242 18.2722 5.16893 18.0052 5.09861L17.7505 6.06563ZM24.5492 6.84771C24.2827 6.77568 24.0082 6.9334 23.9361 7.19998C23.8641 7.46657 24.0218 7.74107 24.2884 7.81309L24.5492 6.84771ZM30.8226 9.58461C31.0891 9.65685 31.3637 9.49935 31.436 9.23282C31.5082 8.96629 31.3507 8.69167 31.0842 8.61943L30.8226 9.58461ZM37.6201 10.3773C37.3532 10.3064 37.0793 10.4652 37.0084 10.7321C36.9374 10.9989 37.0962 11.2728 37.3631 11.3438L37.6201 10.3773ZM43.9194 13.0541C44.1869 13.1223 44.4592 12.9606 44.5273 12.693C44.5955 12.4254 44.4339 12.1532 44.1663 12.085L43.9194 13.0541ZM50.7317 13.7059C50.463 13.642 50.1934 13.8079 50.1295 14.0766C50.0656 14.3452 50.2315 14.6148 50.5002 14.6787L50.7317 13.7059ZM57.1129 16.1806C57.3828 16.2387 57.6488 16.067 57.7069 15.7971C57.7651 15.5271 57.5934 15.2611 57.3234 15.203L57.1129 16.1806ZM63.9468 16.539C63.6753 16.4882 63.4141 16.6671 63.3633 16.9385C63.3125 17.2099 63.4913 17.4711 63.7628 17.522L63.9468 16.539ZM70.4523 18.665C70.7253 18.7069 70.9805 18.5197 71.0225 18.2468C71.0644 17.9738 70.8772 17.7185 70.6043 17.6766L70.4523 18.665ZM77.2945 18.5787C77.0202 18.5471 76.7722 18.7438 76.7406 19.0182C76.709 19.2925 76.9057 19.5405 77.1801 19.5721L77.2945 18.5787ZM83.9414 20.2071C84.2169 20.2269 84.4562 20.0197 84.476 19.7443C84.4959 19.4689 84.2886 19.2295 84.0132 19.2097L83.9414 20.2071ZM90.7519 19.5367C90.4758 19.53 90.2466 19.7483 90.2398 20.0244C90.2331 20.3004 90.4514 20.5297 90.7274 20.5364L90.7519 19.5367ZM97.8359 20.5369C98.112 20.5307 98.3307 20.3019 98.3245 20.0258C98.3184 19.7497 98.0895 19.5309 97.8135 19.5371L97.8359 20.5369ZM105.162 19.1281C104.887 19.1545 104.685 19.3987 104.712 19.6736C104.738 19.9485 104.982 20.1499 105.257 20.1235L105.162 19.1281ZM112.625 19.0131C112.895 18.9557 113.067 18.6902 113.01 18.4201C112.952 18.15 112.687 17.9775 112.417 18.0349L112.625 19.0131ZM119.46 16.029C119.2 16.1231 119.066 16.4098 119.16 16.6694C119.254 16.929 119.54 17.0633 119.8 16.9693L119.46 16.029ZM1.33093 2.04518C2.43064 2.2874 3.52938 2.53616 4.62731 2.79069L4.85314 1.81652C3.75188 1.56122 2.64955 1.31165 1.54603 1.06859L1.33093 2.04518ZM11.1996 4.37905C13.3849 4.92659 15.568 5.49085 17.7505 6.06563L18.0052 5.09861C15.8198 4.52306 13.6326 3.95777 11.4426 3.40903L11.1996 4.37905ZM24.2884 7.81309C26.4661 8.40149 28.6429 8.99384 30.8226 9.58461L31.0842 8.61943C28.906 8.02906 26.7273 7.43621 24.5492 6.84771L24.2884 7.81309ZM37.3631 11.3438C39.5452 11.924 41.7303 12.4962 43.9194 13.0541L44.1663 12.085C41.9815 11.5282 39.7998 10.957 37.6201 10.3773L37.3631 11.3438ZM50.5002 14.6787C52.6987 15.2019 54.9026 15.7046 57.1129 16.1806L57.3234 15.203C55.121 14.7287 52.9242 14.2276 50.7317 13.7059L50.5002 14.6787ZM63.7628 17.522C65.9845 17.9379 68.214 18.3209 70.4523 18.665L70.6043 17.6766C68.3775 17.3343 66.1588 16.9531 63.9468 16.539L63.7628 17.522ZM77.1801 19.5721C79.4235 19.8305 81.6769 20.0442 83.9414 20.2071L84.0132 19.2097C81.7638 19.0478 79.5246 18.8355 77.2945 18.5787L77.1801 19.5721ZM90.7274 20.5364C91.8572 20.5641 92.9898 20.5779 94.1257 20.577L94.1249 19.577C92.9977 19.5779 91.8734 19.5642 90.7519 19.5367L90.7274 20.5364ZM94.1257 20.577C95.3829 20.5761 96.6186 20.5642 97.8359 20.5369L97.8135 19.5371C96.6048 19.5643 95.3764 19.5761 94.1249 19.577L94.1257 20.577ZM105.257 20.1235C107.755 19.8835 110.199 19.5283 112.625 19.0131L112.417 18.0349C110.034 18.5411 107.627 18.8911 105.162 19.1281L105.257 20.1235ZM119.8 16.9693C120.951 16.5525 122.104 16.0896 123.264 15.5758L122.859 14.6616C121.72 15.1659 120.589 15.6201 119.46 16.029L119.8 16.9693ZM1.65358 0.580293C1.11422 0.461496 0.580682 0.802427 0.461885 1.34178C0.343088 1.88114 0.684019 2.41468 1.22338 2.53348L1.65358 0.580293ZM94.1253 20.077L94.126 21.077L94.1253 20.077ZM123.994 15.4788C124.193 14.9635 123.936 14.3846 123.421 14.1858L115.025 10.9453C114.51 10.7464 113.931 11.0029 113.732 11.5181C113.533 12.0334 113.789 12.6123 114.305 12.8111L121.768 15.6916L118.888 23.155C118.689 23.6703 118.945 24.2492 119.461 24.448C119.976 24.6469 120.555 24.3904 120.754 23.8751L123.994 15.4788ZM4.51439 3.27777C5.05241 3.40249 5.58967 3.06745 5.71439 2.52944C5.83912 1.99142 5.50408 1.45416 4.96606 1.32944L4.51439 3.27777ZM11.5641 2.92403C11.0284 2.78979 10.4853 3.11527 10.3511 3.65099C10.2168 4.18672 10.5423 4.72982 11.078 4.86405L11.5641 2.92403ZM17.6231 6.54914C18.1572 6.6898 18.7042 6.37087 18.8448 5.8368C18.9855 5.30273 18.6666 4.75575 18.1325 4.61509L17.6231 6.54914ZM24.6797 6.36502C24.1465 6.22096 23.5975 6.5364 23.4534 7.06956C23.3094 7.60273 23.6248 8.15173 24.158 8.29579L24.6797 6.36502ZM30.6918 10.0672C31.2248 10.2117 31.7741 9.89667 31.9186 9.36362C32.063 8.83057 31.748 8.28132 31.215 8.13684L30.6918 10.0672ZM37.7485 9.89414C37.2148 9.75222 36.6671 10.0698 36.5251 10.6036C36.3832 11.1373 36.7009 11.6851 37.2346 11.827L37.7485 9.89414ZM43.7959 13.5386C44.3311 13.675 44.8755 13.3517 45.0119 12.8165C45.1482 12.2813 44.825 11.7369 44.2898 11.6005L43.7959 13.5386ZM50.8474 13.2195C50.3101 13.0916 49.7709 13.4235 49.6431 13.9608C49.5152 14.4981 49.8472 15.0373 50.3844 15.1652L50.8474 13.2195ZM57.0076 16.6694C57.5475 16.7856 58.0795 16.4422 58.1957 15.9023C58.312 15.3624 57.9686 14.8305 57.4287 14.7142L57.0076 16.6694ZM64.0388 16.0476C63.4959 15.9459 62.9735 16.3036 62.8718 16.8465C62.7702 17.3893 63.1279 17.9118 63.6708 18.0134L64.0388 16.0476ZM70.3764 19.1592C70.9223 19.2431 71.4328 18.8686 71.5167 18.3227C71.6006 17.7768 71.2261 17.2663 70.6802 17.1824L70.3764 19.1592ZM77.3517 18.0819C76.803 18.0187 76.307 18.4123 76.2438 18.9609C76.1807 19.5096 76.5742 20.0056 77.1229 20.0688L77.3517 18.0819ZM83.9056 20.7058C84.4564 20.7455 84.9351 20.331 84.9748 19.7802C85.0144 19.2293 84.6 18.7506 84.0491 18.711L83.9056 20.7058ZM90.7641 19.0369C90.212 19.0234 89.7535 19.46 89.74 20.0121C89.7265 20.5643 90.1631 21.0228 90.7152 21.0363L90.7641 19.0369ZM97.8471 21.0368C98.3993 21.0244 98.8368 20.5667 98.8244 20.0146C98.812 19.4624 98.3544 19.0249 97.8022 19.0373L97.8471 21.0368ZM105.114 18.6304C104.564 18.6832 104.161 19.1717 104.214 19.7214C104.267 20.2712 104.755 20.674 105.305 20.6212L105.114 18.6304ZM112.728 19.5022C113.269 19.3874 113.614 18.8564 113.499 18.3162C113.384 17.776 112.853 17.4311 112.313 17.5458L112.728 19.5022ZM119.289 15.5589C118.77 15.747 118.501 16.3204 118.69 16.8397C118.878 17.3589 119.451 17.6274 119.97 17.4394L119.289 15.5589ZM1.22338 2.53348C2.32118 2.77528 3.41813 3.02363 4.51439 3.27777L4.96606 1.32944C3.86313 1.07375 2.75901 0.823772 1.65358 0.580293L1.22338 2.53348ZM11.078 4.86405C13.261 5.41101 15.4421 5.97474 17.6231 6.54914L18.1325 4.61509C15.9457 4.03916 13.7565 3.47336 11.5641 2.92403L11.078 4.86405ZM24.158 8.29579C26.3355 8.88414 28.5114 9.47624 30.6918 10.0672L31.215 8.13684C29.0375 7.54667 26.8579 6.95356 24.6797 6.36502L24.158 8.29579ZM37.2346 11.827C39.418 12.4075 41.6048 12.9802 43.7959 13.5386L44.2898 11.6005C42.107 11.0442 39.9271 10.4734 37.7485 9.89414L37.2346 11.827ZM50.3844 15.1652C52.586 15.689 54.7934 16.1925 57.0076 16.6694L57.4287 14.7142C55.2302 14.2408 53.0369 13.7405 50.8474 13.2195L50.3844 15.1652ZM63.6708 18.0134C65.8974 18.4302 68.1323 18.8142 70.3764 19.1592L70.6802 17.1824C68.4593 16.841 66.2459 16.4607 64.0388 16.0476L63.6708 18.0134ZM77.1229 20.0688C79.373 20.328 81.6335 20.5424 83.9056 20.7058L84.0491 18.711C81.8072 18.5497 79.5751 18.338 77.3517 18.0819L77.1229 20.0688ZM90.7152 21.0363C91.849 21.064 92.9859 21.0779 94.126 21.077L94.1246 19.077C93.0016 19.0779 91.8815 19.0642 90.7641 19.0369L90.7152 21.0363ZM94.126 21.077C95.3862 21.0761 96.6255 21.0642 97.8471 21.0368L97.8022 19.0373C96.5978 19.0643 95.3732 19.0761 94.1246 19.077L94.126 21.077ZM105.305 20.6212C107.818 20.3797 110.282 20.0219 112.728 19.5022L112.313 17.5458C109.951 18.0475 107.564 18.395 105.114 18.6304L105.305 20.6212ZM119.97 17.4394C121.132 17.0186 122.296 16.5514 123.466 16.033L122.656 14.2044C121.528 14.7041 120.407 15.154 119.289 15.5589L119.97 17.4394Z" fill="url(#paint0_linear)"/>
<defs>
<linearGradient id="paint0_linear" x1="109.966" y1="5.65995" x2="11.5122" y2="14.1823" gradientUnits="userSpaceOnUse">
<stop stop-color="#42BEAD"/>
<stop offset="0.8014" stop-color="#3EA57B"/>
<stop offset="1" stop-color="#3CA06F"/>
</linearGradient>
</defs>
</svg>
