<svg width="121" height="32" viewBox="0 0 121 32" fill="none" xmlns="http://www.w3.org/2000/svg">
<path d="M1.12536 3.21536C0.852601 3.25846 0.666428 3.51451 0.70953 3.78727C0.752631 4.06003 1.00869 4.2462 1.28144 4.2031L1.12536 3.21536ZM119.689 26.1748C119.926 26.0341 120.005 25.7274 119.864 25.4898L117.572 21.6176C117.431 21.38 117.124 21.3014 116.887 21.4421C116.649 21.5828 116.57 21.8895 116.711 22.1271L118.749 25.569L115.307 27.6069C115.069 27.7476 114.991 28.0543 115.131 28.2919C115.272 28.5295 115.579 28.6081 115.816 28.4674L119.689 26.1748ZM4.64045 3.70509C4.91399 3.66724 5.10505 3.41481 5.0672 3.14127C5.02935 2.86774 4.77692 2.67668 4.50338 2.71453L4.64045 3.70509ZM11.2338 1.92046C10.959 1.94715 10.7578 2.19159 10.7845 2.46644C10.8112 2.74129 11.0556 2.94247 11.3305 2.91578L11.2338 1.92046ZM18.0727 2.40953C18.3485 2.39503 18.5603 2.15973 18.5458 1.88396C18.5313 1.6082 18.296 1.39641 18.0202 1.41091L18.0727 2.40953ZM24.7987 1.21311C24.5225 1.21458 24.2999 1.43963 24.3014 1.71577C24.3028 1.9919 24.5279 2.21457 24.804 2.21309L24.7987 1.21311ZM31.5554 2.34418C31.8313 2.35647 32.0649 2.14279 32.0772 1.86692C32.0895 1.59105 31.8758 1.35746 31.5999 1.34517L31.5554 2.34418ZM38.3786 1.82097C38.1038 1.79456 37.8595 1.99599 37.8331 2.27086C37.8067 2.54574 38.0081 2.78998 38.283 2.81639L38.3786 1.82097ZM44.972 3.63298C45.2452 3.67344 45.4994 3.48479 45.5399 3.21163C45.5803 2.93847 45.3917 2.68423 45.1185 2.64377L44.972 3.63298ZM51.8115 3.80659C51.5406 3.75267 51.2774 3.9285 51.2234 4.19933C51.1695 4.47015 51.3454 4.73342 51.6162 4.78734L51.8115 3.80659ZM58.2036 6.25891C58.4716 6.32514 58.7427 6.16151 58.8089 5.89343C58.8751 5.62535 58.7115 5.35433 58.4434 5.2881L58.2036 6.25891ZM65.001 7.05121C64.7357 6.97438 64.4584 7.12711 64.3816 7.39235C64.3047 7.65759 64.4575 7.93489 64.7227 8.01172L65.001 7.05121ZM71.1777 9.99912C71.4403 10.0844 71.7224 9.94063 71.8077 9.67798C71.893 9.41534 71.7492 9.13329 71.4865 9.04801L71.1777 9.99912ZM77.9103 11.2211C77.6497 11.1299 77.3644 11.2672 77.2732 11.5278C77.1819 11.7884 77.3192 12.0737 77.5798 12.1649L77.9103 11.2211ZM83.9469 14.4468C84.2064 14.5414 84.4934 14.4078 84.588 14.1484C84.6826 13.8889 84.549 13.6019 84.2895 13.5073L83.9469 14.4468ZM90.6462 15.8407C90.387 15.7454 90.0997 15.8783 90.0044 16.1375C89.9092 16.3967 90.0421 16.684 90.3013 16.7793L90.6462 15.8407ZM96.6665 19.0968C96.9264 19.1901 97.2127 19.055 97.3059 18.7951C97.3992 18.5352 97.2641 18.2489 97.0042 18.1556L96.6665 19.0968ZM103.386 20.3895C103.125 20.3007 102.841 20.4407 102.752 20.7021C102.663 20.9636 102.803 21.2476 103.065 21.3364L103.386 20.3895ZM109.514 23.4396C109.778 23.5216 110.058 23.3744 110.14 23.1108C110.222 22.8471 110.075 22.5668 109.811 22.4848L109.514 23.4396ZM116.293 24.3911C116.027 24.3177 115.751 24.4739 115.678 24.7401C115.605 25.0063 115.761 25.2817 116.027 25.3551L116.293 24.3911ZM1.28144 4.2031C2.41346 4.02422 3.533 3.85834 4.64045 3.70509L4.50338 2.71453C3.38952 2.86867 2.26364 3.03548 1.12536 3.21536L1.28144 4.2031ZM11.3305 2.91578C13.6297 2.69251 15.8758 2.52505 18.0727 2.40953L18.0202 1.41091C15.8084 1.52722 13.5476 1.69579 11.2338 1.92046L11.3305 2.91578ZM24.804 2.21309C27.1069 2.20081 29.3556 2.2462 31.5554 2.34418L31.5999 1.34517C29.3835 1.24646 27.1182 1.20073 24.7987 1.21311L24.804 2.21309ZM38.283 2.81639C40.5612 3.03526 42.7886 3.3096 44.972 3.63298L45.1185 2.64377C42.9187 2.31796 40.6743 2.04152 38.3786 1.82097L38.283 2.81639ZM51.6162 4.78734C53.8513 5.23236 56.0444 5.72546 58.2036 6.25891L58.4434 5.2881C56.2704 4.75124 54.0624 4.25478 51.8115 3.80659L51.6162 4.78734ZM64.7227 8.01172C66.899 8.64213 69.0476 9.30746 71.1777 9.99912L71.4865 9.04801C69.3478 8.35353 67.1888 7.68499 65.001 7.05121L64.7227 8.01172ZM77.5798 12.1649C79.709 12.9105 81.8281 13.6741 83.9469 14.4468L84.2895 13.5073C82.1685 12.7338 80.045 11.9687 77.9103 11.2211L77.5798 12.1649ZM90.3013 16.7793C92.4112 17.5547 94.5302 18.3303 96.6665 19.0968L97.0042 18.1556C94.8717 17.3904 92.7556 16.6159 90.6462 15.8407L90.3013 16.7793ZM103.065 21.3364C105.186 22.0569 107.334 22.7607 109.514 23.4396L109.811 22.4848C107.64 21.8089 105.501 21.1077 103.386 20.3895L103.065 21.3364ZM116.027 25.3551C117.111 25.6543 118.205 25.9459 119.31 26.2289L119.558 25.2602C118.46 24.9788 117.372 24.6888 116.293 24.3911L116.027 25.3551ZM1.04732 2.72148C0.501801 2.80769 0.129455 3.3198 0.215658 3.86531C0.301861 4.41083 0.81397 4.78317 1.35949 4.69697L1.04732 2.72148ZM119.943 26.605C120.419 26.3237 120.576 25.7103 120.294 25.2351L115.709 17.4907C115.428 17.0154 114.814 16.8583 114.339 17.1396C113.864 17.421 113.707 18.0344 113.988 18.5096L118.064 25.3935L111.18 29.4693C110.705 29.7506 110.548 30.364 110.829 30.8392C111.11 31.3145 111.724 31.4716 112.199 31.1902L119.943 26.605ZM4.70899 4.20037C5.25606 4.12467 5.63818 3.61981 5.56248 3.07273C5.48677 2.52566 4.98191 2.14354 4.43484 2.21925L4.70899 4.20037ZM11.1855 1.4228C10.6358 1.47618 10.2335 1.96507 10.2868 2.51477C10.3402 3.06447 10.8291 3.46682 11.3788 3.41344L11.1855 1.4228ZM18.099 2.90884C18.6505 2.87984 19.0741 2.40923 19.0451 1.85771C19.0161 1.30619 18.5455 0.882599 17.994 0.9116L18.099 2.90884ZM24.796 0.713114C24.2437 0.71606 23.7984 1.16616 23.8014 1.71843C23.8043 2.27071 24.2544 2.71603 24.8067 2.71309L24.796 0.713114ZM31.5332 2.84369C32.0849 2.86826 32.5521 2.44091 32.5767 1.88917C32.6012 1.33743 32.1739 0.87024 31.6222 0.845667L31.5332 2.84369ZM38.4264 1.32326C37.8767 1.27045 37.3882 1.67329 37.3354 2.22305C37.2826 2.7728 37.6854 3.26128 38.2352 3.3141L38.4264 1.32326ZM44.8987 4.12759C45.4451 4.2085 45.9535 3.83121 46.0345 3.28489C46.1154 2.73856 45.7381 2.23008 45.1918 2.14917L44.8987 4.12759ZM51.9091 3.31622C51.3674 3.20837 50.8409 3.56004 50.7331 4.10169C50.6252 4.64334 50.9769 5.16987 51.5185 5.27771L51.9091 3.31622ZM58.0836 6.74431C58.6198 6.87678 59.1618 6.54952 59.2943 6.01335C59.4268 5.47719 59.0995 4.93516 58.5633 4.80269L58.0836 6.74431ZM65.1401 6.57095C64.6096 6.41729 64.055 6.72275 63.9013 7.25323C63.7477 7.78371 64.0531 8.33831 64.5836 8.49198L65.1401 6.57095ZM71.0233 10.4747C71.5486 10.6452 72.1127 10.3577 72.2832 9.8324C72.4538 9.30711 72.1662 8.74301 71.641 8.57245L71.0233 10.4747ZM78.0756 10.7492C77.5543 10.5667 76.9838 10.8413 76.8013 11.3625C76.6187 11.8838 76.8933 12.4543 77.4146 12.6368L78.0756 10.7492ZM83.7756 14.9165C84.2945 15.1058 84.8685 14.8385 85.0577 14.3197C85.2469 13.8008 84.9797 13.2268 84.4608 13.0376L83.7756 14.9165ZM90.8187 15.3713C90.3003 15.1808 89.7256 15.4466 89.5351 15.965C89.3446 16.4834 89.6104 17.0581 90.1288 17.2486L90.8187 15.3713ZM96.4976 19.5675C97.0174 19.754 97.59 19.4838 97.7766 18.964C97.9631 18.4441 97.6929 17.8715 97.1731 17.685L96.4976 19.5675ZM103.547 19.916C103.024 19.7384 102.456 20.0184 102.279 20.5414C102.101 21.0643 102.381 21.6322 102.904 21.8098L103.547 19.916ZM109.365 23.917C109.893 24.0811 110.453 23.7867 110.617 23.2594C110.782 22.7321 110.487 22.1715 109.96 22.0074L109.365 23.917ZM116.426 23.9091C115.894 23.7622 115.343 24.0747 115.196 24.6071C115.049 25.1395 115.362 25.6902 115.894 25.8371L116.426 23.9091ZM1.35949 4.69697C2.48837 4.51858 3.60475 4.35318 4.70899 4.20037L4.43484 2.21925C3.31778 2.37383 2.18873 2.54112 1.04732 2.72148L1.35949 4.69697ZM11.3788 3.41344C13.6708 3.19088 15.9096 3.02397 18.099 2.90884L17.994 0.9116C15.7747 1.0283 13.5065 1.19742 11.1855 1.4228L11.3788 3.41344ZM24.8067 2.71309C27.1012 2.70085 29.3416 2.74608 31.5332 2.84369L31.6222 0.845667C29.3975 0.746581 27.1238 0.700697 24.796 0.713114L24.8067 2.71309ZM38.2352 3.3141C40.5046 3.53213 42.7236 3.80543 44.8987 4.12759L45.1918 2.14917C42.9837 1.82213 40.7308 1.54465 38.4264 1.32326L38.2352 3.3141ZM51.5185 5.27771C53.7457 5.72115 55.9313 6.21257 58.0836 6.74431L58.5633 4.80269C56.3835 4.26414 54.168 3.76599 51.9091 3.31622L51.5185 5.27771ZM64.5836 8.49198C66.754 9.1207 68.8975 9.78443 71.0233 10.4747L71.641 8.57245C69.4978 7.87656 67.3338 7.20642 65.1401 6.57095L64.5836 8.49198ZM77.4146 12.6368C79.541 13.3815 81.6579 14.1443 83.7756 14.9165L84.4608 13.0376C82.3386 12.2637 80.213 11.4977 78.0756 10.7492L77.4146 12.6368ZM90.1288 17.2486C92.2391 18.0241 94.3595 18.8002 96.4976 19.5675L97.1731 17.685C95.0424 16.9204 92.9278 16.1465 90.8187 15.3713L90.1288 17.2486ZM102.904 21.8098C105.029 22.5315 107.18 23.2367 109.365 23.917L109.96 22.0074C107.793 21.3329 105.659 20.6332 103.547 19.916L102.904 21.8098ZM115.894 25.8371C116.981 26.1371 118.078 26.4294 119.186 26.7132L119.682 24.7758C118.587 24.4952 117.502 24.206 116.426 23.9091L115.894 25.8371Z" fill="url(#paint0_linear)"/>
<defs>
<linearGradient id="paint0_linear" x1="2.73036" y1="-2.19123" x2="119.009" y2="27.6025" gradientUnits="userSpaceOnUse">
<stop stop-color="#42BEAD"/>
<stop offset="0.4376" stop-color="#3195AC"/>
<stop offset="1" stop-color="#2364A4"/>
</linearGradient>
</defs>
</svg>
