<svg width="66" height="57" viewBox="0 0 66 57" fill="none" xmlns="http://www.w3.org/2000/svg">
<path d="M64.7712 1.10353C64.8283 0.833369 64.6556 0.56803 64.3855 0.510879C64.1153 0.45373 63.85 0.626411 63.7928 0.896575L64.7712 1.10353ZM45.4156 31.5225L45.0976 31.1367L45.4156 31.5225ZM14.1797 47.2471L14.4178 47.6868L14.1797 47.2471ZM3.01726 55.8529C3.08925 56.1195 3.36373 56.2772 3.63033 56.2052L7.97467 55.0319C8.24126 54.9599 8.39901 54.6854 8.32701 54.4188C8.25501 54.1522 7.98052 53.9945 7.71393 54.0665L3.8523 55.1094L2.80935 51.2478C2.73735 50.9812 2.46287 50.8234 2.19628 50.8954C1.92969 50.9674 1.77194 51.2419 1.84394 51.5085L3.01726 55.8529ZM63.0987 3.85302C63.0294 4.12032 63.1899 4.39319 63.4572 4.46249C63.7245 4.53179 63.9974 4.37127 64.0667 4.10397L63.0987 3.85302ZM62.2134 9.98171C62.3109 9.72336 62.1806 9.43487 61.9222 9.33734C61.6639 9.2398 61.3754 9.37016 61.2779 9.62851L62.2134 9.98171ZM58.7932 15.1411C58.6635 15.385 58.7561 15.6877 58.9999 15.8173C59.2438 15.947 59.5465 15.8544 59.6761 15.6106L58.7932 15.1411ZM56.4126 20.8539C56.5741 20.6299 56.5234 20.3174 56.2994 20.156C56.0754 19.9945 55.7629 20.0452 55.6014 20.2692L56.4126 20.8539ZM51.7584 24.9387C51.5704 25.1409 51.582 25.4573 51.7842 25.6453C51.9864 25.8333 52.3028 25.8218 52.4908 25.6196L51.7584 24.9387ZM48.0728 29.9113C48.2794 29.7281 48.2984 29.4121 48.1152 29.2054C47.9321 28.9988 47.616 28.9798 47.4094 29.163L48.0728 29.9113ZM42.7908 32.8479C42.5619 33.0024 42.5017 33.3132 42.6563 33.5421C42.8108 33.7709 43.1217 33.8311 43.3505 33.6765L42.7908 32.8479ZM38.278 36.6735C38.5222 36.5445 38.6155 36.242 38.4865 35.9978C38.3575 35.7537 38.055 35.6603 37.8108 35.7893L38.278 36.6735ZM32.5894 38.3512C32.3387 38.467 32.2293 38.764 32.345 39.0148C32.4608 39.2655 32.7578 39.3749 33.0086 39.2592L32.5894 38.3512ZM27.6596 41.6403C27.9129 41.5303 28.0292 41.2359 27.9192 40.9826C27.8093 40.7292 27.5148 40.613 27.2615 40.7229L27.6596 41.6403ZM21.8974 43.0443C21.6443 43.1549 21.5289 43.4497 21.6394 43.7027C21.75 43.9557 22.0448 44.0712 22.2978 43.9607L21.8974 43.0443ZM16.9995 46.3721C17.2481 46.2519 17.3521 45.9529 17.2319 45.7043C17.1117 45.4557 16.8127 45.3516 16.5641 45.4718L16.9995 46.3721ZM10.898 48.4697C10.658 48.6061 10.574 48.9114 10.7105 49.1514C10.847 49.3915 11.1522 49.4755 11.3923 49.339L10.898 48.4697ZM5.94321 53.3223C6.13531 53.1239 6.13023 52.8074 5.93186 52.6153C5.73349 52.4232 5.41695 52.4282 5.22484 52.6266L5.94321 53.3223ZM63.7928 0.896575C63.5779 1.91259 63.3465 2.8974 63.0987 3.85302L64.0667 4.10397C64.3184 3.13324 64.5532 2.13375 64.7712 1.10353L63.7928 0.896575ZM61.2779 9.62851C60.5361 11.5931 59.7072 13.4222 58.7932 15.1411L59.6761 15.6106C60.6106 13.853 61.4571 11.9851 62.2134 9.98171L61.2779 9.62851ZM55.6014 20.2692C54.4183 21.9104 53.1366 23.4562 51.7584 24.9387L52.4908 25.6196C53.8947 24.1095 55.2031 22.5317 56.4126 20.8539L55.6014 20.2692ZM47.4094 29.163C46.6604 29.827 45.8897 30.4837 45.0976 31.1367L45.7336 31.9083C46.534 31.2485 47.3139 30.584 48.0728 29.9113L47.4094 29.163ZM45.0976 31.1367C44.3934 31.7171 43.6209 32.2872 42.7908 32.8479L43.3505 33.6765C44.2022 33.1013 45.0009 32.5122 45.7336 31.9083L45.0976 31.1367ZM37.8108 35.7893C36.148 36.6679 34.3895 37.5203 32.5894 38.3512L33.0086 39.2592C34.8191 38.4233 36.5947 37.5629 38.278 36.6735L37.8108 35.7893ZM27.2615 40.7229C25.4439 41.5117 23.6319 42.2864 21.8974 43.0443L22.2978 43.9607C24.0329 43.2025 25.8331 42.4329 27.6596 41.6403L27.2615 40.7229ZM16.5641 45.4718C15.6392 45.9191 14.7607 46.364 13.9416 46.8075L14.4178 47.6868C15.2203 47.2523 16.0847 46.8144 16.9995 46.3721L16.5641 45.4718ZM13.9416 46.8075C12.9469 47.3461 11.9143 47.8919 10.898 48.4697L11.3923 49.339C12.3965 48.7681 13.4113 48.2318 14.4178 47.6868L13.9416 46.8075ZM5.22484 52.6266C4.41315 53.4648 3.68145 54.4032 3.06645 55.4734L3.93347 55.9716C4.50296 54.9807 5.18269 54.1076 5.94321 53.3223L5.22484 52.6266ZM65.2603 1.20701C65.3746 0.666686 65.0293 0.136005 64.4889 0.0217055C63.9486 -0.0925959 63.4179 0.252769 63.3036 0.793096L65.2603 1.20701ZM45.4156 31.5225L44.7795 30.7508L45.4156 31.5225ZM14.1797 47.2471L14.6558 48.1265L14.1797 47.2471ZM2.53455 55.9832C2.67855 56.5164 3.22751 56.8319 3.76069 56.6879L12.4494 54.3413C12.9826 54.1973 13.2981 53.6483 13.1541 53.1151C13.0101 52.582 12.4611 52.2665 11.9279 52.4105L4.20463 54.4963L2.11874 46.7731C1.97475 46.2399 1.42578 45.9244 0.892601 46.0684C0.359416 46.2124 0.043924 46.7614 0.187923 47.2945L2.53455 55.9832ZM62.6147 3.72754C62.4761 4.26215 62.7972 4.80789 63.3318 4.94649C63.8664 5.08509 64.4121 4.76405 64.5507 4.22944L62.6147 3.72754ZM62.6812 10.1583C62.8762 9.64162 62.6155 9.06463 62.0988 8.86956C61.5821 8.67449 61.0052 8.93522 60.8101 9.45191L62.6812 10.1583ZM58.3517 14.9064C58.0924 15.3941 58.2776 15.9995 58.7652 16.2588C59.2528 16.5181 59.8583 16.333 60.1176 15.8453L58.3517 14.9064ZM56.8182 21.1463C57.1412 20.6983 57.0398 20.0733 56.5918 19.7504C56.1438 19.4274 55.5188 19.5288 55.1958 19.9768L56.8182 21.1463ZM51.3922 24.5982C51.0162 25.0027 51.0393 25.6355 51.4438 26.0115C51.8482 26.3875 52.481 26.3645 52.857 25.96L51.3922 24.5982ZM48.4045 30.2854C48.8177 29.919 48.8558 29.287 48.4894 28.8738C48.123 28.4605 47.491 28.4225 47.0777 28.7888L48.4045 30.2854ZM42.5109 32.4335C42.0532 32.7426 41.9328 33.3643 42.2419 33.8219C42.5511 34.2796 43.1727 34.4 43.6303 34.0909L42.5109 32.4335ZM38.5116 37.1156C38.9999 36.8576 39.1866 36.2526 38.9286 35.7642C38.6706 35.2759 38.0656 35.0892 37.5773 35.3472L38.5116 37.1156ZM32.3799 37.8973C31.8784 38.1288 31.6596 38.7229 31.8911 39.2243C32.1226 39.7258 32.7167 39.9446 33.2181 39.7131L32.3799 37.8973ZM27.8586 42.099C28.3653 41.8791 28.5978 41.2902 28.3779 40.7835C28.1581 40.2769 27.5691 40.0444 27.0625 40.2642L27.8586 42.099ZM21.6972 42.5862C21.1911 42.8073 20.9601 43.3968 21.1813 43.9029C21.4024 44.409 21.9919 44.64 22.498 44.4188L21.6972 42.5862ZM17.2171 46.8222C17.7143 46.5818 17.9225 45.9838 17.6821 45.4866C17.4416 44.9894 16.8436 44.7812 16.3464 45.0217L17.2171 46.8222ZM10.6509 48.035C10.1708 48.308 10.0029 48.9185 10.2758 49.3986C10.5488 49.8787 11.1593 50.0466 11.6394 49.7736L10.6509 48.035ZM6.30239 53.6701C6.68659 53.2734 6.67644 52.6403 6.2797 52.2561C5.88295 51.8719 5.24987 51.882 4.86566 52.2788L6.30239 53.6701ZM63.3036 0.793096C63.0902 1.80201 62.8605 2.77948 62.6147 3.72754L64.5507 4.22944C64.8043 3.25116 65.0409 2.24433 65.2603 1.20701L63.3036 0.793096ZM60.8101 9.45191C60.0757 11.3972 59.2554 13.2067 58.3517 14.9064L60.1176 15.8453C61.0624 14.0684 61.9175 12.1811 62.6812 10.1583L60.8101 9.45191ZM55.1958 19.9768C54.0258 21.5997 52.7576 23.1296 51.3922 24.5982L52.857 25.96C54.2738 24.4361 55.5956 22.8423 56.8182 21.1463L55.1958 19.9768ZM47.0777 28.7888C46.3336 29.4485 45.5675 30.1013 44.7795 30.7508L46.0516 32.2941C46.8562 31.6309 47.6406 30.9625 48.4045 30.2854L47.0777 28.7888ZM44.7795 30.7508C44.0897 31.3195 43.3302 31.8802 42.5109 32.4335L43.6303 34.0909C44.4929 33.5083 45.3047 32.9098 46.0516 32.2941L44.7795 30.7508ZM37.5773 35.3472C35.9247 36.2204 34.1746 37.0687 32.3799 37.8973L33.2181 39.7131C35.034 38.8749 36.818 38.0104 38.5116 37.1156L37.5773 35.3472ZM27.0625 40.2642C25.2492 41.0511 23.4314 41.8283 21.6972 42.5862L22.498 44.4188C24.2334 43.6605 26.0277 42.8935 27.8586 42.099L27.0625 40.2642ZM16.3464 45.0217C15.4165 45.4714 14.5309 45.9198 13.7036 46.3678L14.6558 48.1265C15.4501 47.6965 16.3075 47.2621 17.2171 46.8222L16.3464 45.0217ZM13.7036 46.3678C12.7147 46.9032 11.6731 47.4538 10.6509 48.035L11.6394 49.7736C12.6376 49.2061 13.6435 48.6746 14.6558 48.1265L13.7036 46.3678ZM4.86566 52.2788C4.02839 53.1434 3.2707 54.1145 2.63294 55.2242L4.36697 56.2208C4.91371 55.2694 5.56745 54.429 6.30239 53.6701L4.86566 52.2788Z" fill="url(#paint0_linear)"/>
<defs>
<linearGradient id="paint0_linear" x1="68.6329" y1="8.55561" x2="-0.669484" y2="48.5674" gradientUnits="userSpaceOnUse">
<stop stop-color="#ABD03B"/>
<stop offset="0.7057" stop-color="#65AC62"/>
<stop offset="1" stop-color="#3CA06F"/>
</linearGradient>
</defs>
</svg>
