<svg width="1440" height="820" viewBox="0 0 1440 820" fill="none" xmlns="http://www.w3.org/2000/svg">
<path d="M1694.84 120.194C1608.01 130.423 1524.91 174.784 1466.17 238.836C1465.32 240.141 1464.46 241.445 1463.61 242.75C1428.63 247.794 1392.39 257.606 1358.75 269.127C1283.7 292.664 1210.45 324.835 1132.26 333.263C975.879 350.118 824.379 271.362 692.709 185.092C561.039 98.8212 431.846 -2.60531 278.087 -38.0979C207.051 -54.8111 134.843 -55.5142 63.1703 -42.8159C100.108 -130.474 170.448 -203.704 256.605 -244.198C366.461 -295.265 497.928 -291.158 604.293 -234.518C676.356 -196.623 732.587 -137.409 796.105 -86.4702C803.072 -80.0408 810.894 -74.9159 819.165 -67.6324C876.57 -24.4278 940.406 11.8047 1012.21 15.9707C1093.09 20.4945 1170.62 -18.1986 1236.86 -62.4208C1303.95 -107.947 1366.24 -160.353 1440.8 -191.67C1448.98 -195.63 1456.31 -198.285 1465.8 -201.39L1830.82 37.7756L1776.13 121.255C1747.13 117.17 1721.18 116.95 1694.84 120.194Z" fill="#F1F2F4"/>
<path fill-rule="evenodd" clip-rule="evenodd" d="M92.0418 -105.74C79.7061 -103.848 67.3946 -101.544 55.1157 -98.8403C88.398 -187.95 155.651 -264.025 240.061 -308.046C347.712 -363.611 479.237 -364.941 587.851 -312.746C639.79 -288.119 684.283 -252.548 729.029 -216.775C747.663 -201.877 766.341 -186.945 785.619 -172.753C789.383 -169.558 793.364 -166.725 797.525 -163.765C801.353 -161.041 805.334 -158.208 809.439 -154.885C868.58 -114.09 933.859 -80.5271 1005.77 -79.3326C1086.78 -78.1561 1162.63 -120.021 1226.99 -166.943C1243.73 -179.338 1260.12 -192.173 1276.5 -204.987C1323.87 -242.066 1371.01 -278.968 1425.41 -304.512C1433.42 -308.806 1440.64 -311.762 1449.99 -315.257L1824.59 -91.384L1799.35 -49.1496L1828.82 -31.5336L1777.63 54.1356C1748.48 51.252 1722.55 52.1054 1696.36 56.4357C1610.03 70.2442 1528.84 118.002 1472.8 184.428L1470.4 188.444C1435.65 194.93 1399.85 206.232 1366.72 219.133C1346.98 226.231 1327.4 233.938 1307.82 241.645C1253.96 262.838 1200.11 284.031 1143.07 292.576C987.522 315.881 832.896 243.455 697.773 162.701C674.89 149.025 652.06 134.912 629.167 120.761C516.883 51.3498 403.109 -18.9822 274.279 -43.1596C202.614 -56.9223 130.438 -54.64 59.3514 -38.99C68.0352 -62.2399 79.0315 -84.6025 92.0418 -105.74Z" fill="url(#paint0_linear)"/>
<defs>
<linearGradient id="paint0_linear" x1="56.6832" y1="-114.277" x2="1823.28" y2="40.2799" gradientUnits="userSpaceOnUse">
<stop stop-color="#42BEAD"/>
<stop offset="0.4376" stop-color="#3195AC"/>
<stop offset="1" stop-color="#2364A4"/>
</linearGradient>
</defs>
</svg>
