<svg width="105" height="26" viewBox="0 0 105 26" fill="none" xmlns="http://www.w3.org/2000/svg">
<path d="M19.7614 5.79417L23.0474 8.82732V12.0673L14.1317 20.2706L10.7309 17.1455L7.76671 18.0876L8.24925 14.8706L5.07823 12.0673V8.82732L8.47904 5.79417L14.1317 10.9873L19.7614 5.79417ZM17.7393 0.624023L14.1317 3.93292L10.5241 0.624023H5.99737L0 6.64437V14.3421L4.22803 18.2255L2.6655 24.6135L8.45606 22.1088L12.1096 25.4637H16.1079L28.2405 14.3192V6.78224L22.0823 0.624023H17.7393Z" fill="url(#paint0_linear)"/>
<path d="M4.22806 18.2256L2.66553 24.6366L8.47907 22.1319L4.22806 18.2256Z" fill="url(#paint1_linear)"/>
<path d="M22.0822 0.624023H17.7393L19.7614 5.79417L22.0822 0.624023Z" fill="url(#paint2_linear)"/>
<path d="M17.7392 0.624023L14.1316 3.95589L19.7613 5.79417L17.7392 0.624023Z" fill="url(#paint3_linear)"/>
<path d="M28.2405 14.3421V6.80518L23.0474 8.82728L28.2405 14.3421Z" fill="url(#paint4_linear)"/>
<path d="M22.0823 0.624023L19.7615 5.79417L23.0474 8.82732L22.0823 0.624023Z" fill="url(#paint5_linear)"/>
<path d="M16.1309 25.4868L28.2405 14.3422L23.0474 12.0674L16.1309 25.4868Z" fill="url(#paint6_linear)"/>
<path d="M28.2405 14.342L23.0474 8.82715V12.0671L28.2405 14.342Z" fill="url(#paint7_linear)"/>
<path d="M8.479 22.1318L12.1096 25.4866L14.1317 20.2705L8.479 22.1318Z" fill="url(#paint8_linear)"/>
<path d="M12.1096 25.4866H16.1079L14.1317 20.2705L12.1096 25.4866Z" fill="url(#paint9_linear)"/>
<path d="M16.1307 25.4868L23.0472 12.0674L14.1316 20.2707L16.1307 25.4868Z" fill="url(#paint10_linear)"/>
<path d="M8.479 22.1318L14.1317 20.2706L10.7309 17.1455L8.479 22.1318Z" fill="url(#paint11_linear)"/>
<path d="M4.22803 18.2258L8.47904 22.1321L7.7667 18.0879L4.22803 18.2258Z" fill="url(#paint12_linear)"/>
<path d="M8.47918 22.1318L10.7311 17.1455L7.76685 18.0876L8.47918 22.1318Z" fill="url(#paint13_linear)"/>
<path d="M4.22803 18.2255L7.7667 18.0876L8.24925 14.8706L4.22803 18.2255Z" fill="url(#paint14_linear)"/>
<path d="M0 14.3422L4.22803 18.2256L5.07823 12.0674L0 14.3422Z" fill="url(#paint15_linear)"/>
<path d="M4.22803 18.2256L8.24925 14.8708L5.07823 12.0674L4.22803 18.2256Z" fill="url(#paint16_linear)"/>
<path d="M5.99737 0.624023L0 6.64437L5.07823 8.82732L5.99737 0.624023Z" fill="url(#paint17_linear)"/>
<path d="M0 6.64404V14.3418L5.07823 8.82699L0 6.64404Z" fill="url(#paint18_linear)"/>
<path d="M0 14.342L5.07823 12.0671V8.82715L0 14.342Z" fill="url(#paint19_linear)"/>
<path d="M14.1317 3.95589L10.5241 0.624023L8.479 5.79417L14.1317 3.95589Z" fill="url(#paint20_linear)"/>
<path d="M10.5241 0.624023H5.99731L8.47898 5.79417L10.5241 0.624023Z" fill="url(#paint21_linear)"/>
<path d="M5.99751 0.624023L5.07837 8.82732L8.47918 5.79417L5.99751 0.624023Z" fill="url(#paint22_linear)"/>
<path d="M19.7613 5.79433L14.1316 3.95605V11.0104L19.7613 5.79433Z" fill="url(#paint23_linear)"/>
<path d="M14.1317 3.95605L8.479 5.79433L14.1317 11.0104V3.95605Z" fill="url(#paint24_linear)"/>
<path d="M28.2405 6.80522L22.0823 0.624023L23.0474 8.82732L28.2405 6.80522Z" fill="url(#paint25_linear)"/>
<path d="M38.5579 12.136C38.5579 11.7223 38.9485 11.5155 39.5229 11.5155C40.1204 11.5155 41.0855 11.8143 41.8668 12.2968L42.5331 10.8721C41.7748 10.3666 40.7178 10.0449 39.6608 10.0449C37.9145 10.0449 36.7426 10.9181 36.7426 12.2738C36.7426 14.9623 40.7638 14.1121 40.7638 15.5368C40.7638 15.9963 40.3502 16.2491 39.6378 16.2491C38.8336 16.2491 37.7306 15.8125 36.9494 15.1232L36.26 16.5248C37.1102 17.2372 38.351 17.7197 39.5919 17.7197C41.2693 17.7197 42.5561 16.9155 42.5561 15.4449C42.5791 12.7334 38.5579 13.5147 38.5579 12.136Z" fill="white"/>
<path d="M51.2879 15.8359L49.6794 10.1372H48.0249L46.4394 15.8359L44.8539 10.1372H43.0156L45.5203 17.6971H47.2666L48.8292 12.2972L50.3457 17.6971H52.1151L54.6197 10.1372H52.8734L51.2879 15.8359Z" fill="white"/>
<path d="M57.2854 14.595H61.3526V13.1933H57.2854V11.5389H61.8121V10.1372H55.585V17.6971H61.8121V16.2724H57.2854V14.595Z" fill="white"/>
<path d="M64.4775 14.595H68.5447V13.1933H64.4775V11.5389H69.0042V10.1372H62.7771V17.6971H69.0042V16.2724H64.4775V14.595Z" fill="white"/>
<path d="M69.9695 11.5848H72.1984V17.6971H73.8988V11.5848H76.1737V10.1372H69.9695V11.5848Z" fill="white"/>
<path d="M83.2508 12.7567C83.2508 11.0793 82.1249 10.1372 80.1487 10.1372H77.0466V17.6971H78.5862V15.5371H80.1717H80.3325L81.5274 17.6971H83.4576L81.8491 15.1925C82.7453 14.7559 83.2508 13.9286 83.2508 12.7567ZM80.1487 14.1125H78.5632V11.5389H80.1487C81.0908 11.5389 81.6193 11.9525 81.6193 12.8027C81.6193 13.6759 81.0908 14.1125 80.1487 14.1125Z" fill="white"/>
<path d="M93.5222 12.136C93.5222 11.7223 93.9128 11.5155 94.4873 11.5155C95.0847 11.5155 96.0498 11.8143 96.8311 12.2968L97.4975 10.8721C96.7392 10.3666 95.6822 10.0449 94.6252 10.0449C92.8788 10.0449 91.7069 10.9181 91.7069 12.2738C91.7069 14.9623 95.7281 14.1121 95.7281 15.5368C95.7281 15.9963 95.3145 16.2491 94.6022 16.2491C93.798 16.2491 92.695 15.8125 91.9137 15.1232L91.2244 16.5248C92.0746 17.2372 93.3154 17.7197 94.5562 17.7197C96.2337 17.7197 97.5205 16.9155 97.5205 15.4449C97.5434 12.7334 93.5222 13.5147 93.5222 12.136Z" fill="white"/>
<path d="M103.035 10.1372V13.2853H99.8183V10.1372H98.3247V17.6971H99.8183V14.7099H103.035V17.6971H104.529V10.1372H103.035Z" fill="white"/>
<path d="M88.8805 16.2265H87.5018C86.4908 16.2035 85.8244 15.5831 85.8014 14.5031V10.1602L84.147 10.1831V14.5261C84.147 17.8579 87.5248 17.6971 87.5248 17.6971H90.4431V10.1602H88.8805V16.2265Z" fill="white"/>
<defs>
<linearGradient id="paint0_linear" x1="4.8873e-05" y1="13.0542" x2="28.2437" y2="13.0542" gradientUnits="userSpaceOnUse">
<stop stop-color="#662D91"/>
<stop offset="0.3469" stop-color="#1FBEC8"/>
<stop offset="0.3828" stop-color="#3FBFBD"/>
<stop offset="0.5833" stop-color="#8AC97C"/>
<stop offset="0.6735" stop-color="#A0CE5C"/>
<stop offset="1" stop-color="#FFD100"/>
</linearGradient>
<linearGradient id="paint1_linear" x1="6.33265" y1="20.2104" x2="2.59823" y2="24.834" gradientUnits="userSpaceOnUse">
<stop stop-color="#374E96"/>
<stop offset="0.1403" stop-color="#365299"/>
<stop offset="0.3469" stop-color="#355DA1"/>
<stop offset="0.5946" stop-color="#356DAE"/>
<stop offset="0.8716" stop-color="#3185C3"/>
<stop offset="1" stop-color="#2B93D1"/>
</linearGradient>
<linearGradient id="paint2_linear" x1="23.5417" y1="0.814216" x2="16.6064" y2="4.28191" gradientUnits="userSpaceOnUse">
<stop stop-color="#FAA61A"/>
<stop offset="1" stop-color="#FFF200"/>
</linearGradient>
<linearGradient id="paint3_linear" x1="16.1042" y1="2.45049" x2="21.3502" y2="7.16299" gradientUnits="userSpaceOnUse">
<stop stop-color="#FAA61A"/>
<stop offset="1" stop-color="#FFF200"/>
</linearGradient>
<linearGradient id="paint4_linear" x1="23.034" y1="12.1438" x2="28.6357" y2="10.4545" gradientUnits="userSpaceOnUse">
<stop stop-color="#B1D34A"/>
<stop offset="0.3479" stop-color="#C3D945"/>
<stop offset="1" stop-color="#EDE937"/>
</linearGradient>
<linearGradient id="paint5_linear" x1="20.474" y1="14.3126" x2="22.8747" y2="-3.64819" gradientUnits="userSpaceOnUse">
<stop stop-color="#FAA61A"/>
<stop offset="1" stop-color="#FFF200"/>
</linearGradient>
<linearGradient id="paint6_linear" x1="27.7157" y1="25.9145" x2="19.2688" y2="16.7562" gradientUnits="userSpaceOnUse">
<stop stop-color="#27B67C"/>
<stop offset="1" stop-color="#8BC751"/>
</linearGradient>
<linearGradient id="paint7_linear" x1="21.2809" y1="9.50097" x2="26.6158" y2="12.3462" gradientUnits="userSpaceOnUse">
<stop stop-color="#B1D34A"/>
<stop offset="0.3479" stop-color="#C3D945"/>
<stop offset="1" stop-color="#EDE937"/>
</linearGradient>
<linearGradient id="paint8_linear" x1="16.0052" y1="17.8583" x2="11.7373" y2="22.304" gradientUnits="userSpaceOnUse">
<stop stop-color="#0093B4"/>
<stop offset="0.0446919" stop-color="#0095B4"/>
<stop offset="0.6863" stop-color="#00B0BB"/>
<stop offset="1" stop-color="#27BDBE"/>
</linearGradient>
<linearGradient id="paint9_linear" x1="14.118" y1="21.2341" x2="14.118" y2="25.1503" gradientUnits="userSpaceOnUse">
<stop stop-color="#4FBFA5"/>
<stop offset="0.7044" stop-color="#28AD95"/>
<stop offset="1" stop-color="#00A68F"/>
</linearGradient>
<linearGradient id="paint10_linear" x1="19.4644" y1="18.7658" x2="13.9516" y2="18.2324" gradientUnits="userSpaceOnUse">
<stop stop-color="#27B67C"/>
<stop offset="1" stop-color="#8BC751"/>
</linearGradient>
<linearGradient id="paint11_linear" x1="9.435" y1="21.0329" x2="12.6359" y2="18.5432" gradientUnits="userSpaceOnUse">
<stop stop-color="#0093B4"/>
<stop offset="0.0446919" stop-color="#0095B4"/>
<stop offset="0.6863" stop-color="#00B0BB"/>
<stop offset="1" stop-color="#27BDBE"/>
</linearGradient>
<linearGradient id="paint12_linear" x1="7.57739" y1="18.553" x2="5.44343" y2="21.3983" gradientUnits="userSpaceOnUse">
<stop stop-color="#0071B4"/>
<stop offset="0.2675" stop-color="#007ABB"/>
<stop offset="0.7881" stop-color="#1095D0"/>
<stop offset="1" stop-color="#33A3DC"/>
</linearGradient>
<linearGradient id="paint13_linear" x1="9.22795" y1="17.7638" x2="8.96122" y2="20.6091" gradientUnits="userSpaceOnUse">
<stop stop-color="#0071B4"/>
<stop offset="0.2675" stop-color="#007ABB"/>
<stop offset="0.7881" stop-color="#1095D0"/>
<stop offset="1" stop-color="#33A3DC"/>
</linearGradient>
<linearGradient id="paint14_linear" x1="4.35011" y1="16.5878" x2="9.15152" y2="16.4988" gradientUnits="userSpaceOnUse">
<stop stop-color="#0071B4"/>
<stop offset="0.2675" stop-color="#007ABB"/>
<stop offset="0.7881" stop-color="#1095D0"/>
<stop offset="1" stop-color="#33A3DC"/>
</linearGradient>
<linearGradient id="paint15_linear" x1="2.68062" y1="13.0587" x2="1.9693" y2="17.1488" gradientUnits="userSpaceOnUse">
<stop stop-color="#30318A"/>
<stop offset="0.292" stop-color="#3A3C90"/>
<stop offset="0.8776" stop-color="#5358A4"/>
<stop offset="1" stop-color="#585EAA"/>
</linearGradient>
<linearGradient id="paint16_linear" x1="6.49938" y1="17.4856" x2="4.63217" y2="10.8169" gradientUnits="userSpaceOnUse">
<stop stop-color="#374E96"/>
<stop offset="0.1403" stop-color="#365299"/>
<stop offset="0.3469" stop-color="#355DA1"/>
<stop offset="0.5946" stop-color="#356DAE"/>
<stop offset="0.8716" stop-color="#3185C3"/>
<stop offset="1" stop-color="#2B93D1"/>
</linearGradient>
<linearGradient id="paint17_linear" x1="4.52422" y1="1.24377" x2="2.47917" y2="7.91239" gradientUnits="userSpaceOnUse">
<stop stop-color="#D9166F"/>
<stop offset="0.2125" stop-color="#C91F71"/>
<stop offset="1" stop-color="#94307D"/>
</linearGradient>
<linearGradient id="paint18_linear" x1="1.96587" y1="12.2758" x2="2.67719" y2="6.5852" gradientUnits="userSpaceOnUse">
<stop stop-color="#8F499C"/>
<stop offset="0.3373" stop-color="#AD4E93"/>
<stop offset="0.9992" stop-color="#F05B83"/>
</linearGradient>
<linearGradient id="paint19_linear" x1="0.73377" y1="13.6947" x2="4.64603" y2="10.7606" gradientUnits="userSpaceOnUse">
<stop stop-color="#30318A"/>
<stop offset="0.292" stop-color="#3A3C90"/>
<stop offset="0.8776" stop-color="#5358A4"/>
<stop offset="1" stop-color="#585EAA"/>
</linearGradient>
<linearGradient id="paint20_linear" x1="11.8495" y1="11.2241" x2="10.7825" y2="-1.04621" gradientUnits="userSpaceOnUse">
<stop stop-color="#EE3135"/>
<stop offset="0.7077" stop-color="#DF2256"/>
<stop offset="1" stop-color="#DA1B60"/>
</linearGradient>
<linearGradient id="paint21_linear" x1="10.1448" y1="3.20845" x2="7.3884" y2="3.20845" gradientUnits="userSpaceOnUse">
<stop stop-color="#EE3135"/>
<stop offset="0.7077" stop-color="#DF2256"/>
<stop offset="1" stop-color="#DA1B60"/>
</linearGradient>
<linearGradient id="paint22_linear" x1="6.92301" y1="16.1648" x2="6.74518" y2="5.85065" gradientUnits="userSpaceOnUse">
<stop stop-color="#8F499C"/>
<stop offset="0.3373" stop-color="#AD4E93"/>
<stop offset="0.9992" stop-color="#F05B83"/>
</linearGradient>
<linearGradient id="paint23_linear" x1="20.4525" y1="6.72714" x2="13.695" y2="7.52736" gradientUnits="userSpaceOnUse">
<stop stop-color="#F26921"/>
<stop offset="1" stop-color="#F7941D"/>
</linearGradient>
<linearGradient id="paint24_linear" x1="11.8225" y1="6.21224" x2="14.5789" y2="13.2365" gradientUnits="userSpaceOnUse">
<stop stop-color="#F26921"/>
<stop offset="1" stop-color="#F7941D"/>
</linearGradient>
<linearGradient id="paint25_linear" x1="34.149" y1="4.22867" x2="21.612" y2="4.76216" gradientUnits="userSpaceOnUse">
<stop stop-color="#FAA61A"/>
<stop offset="1" stop-color="#FFF200"/>
</linearGradient>
</defs>
</svg>
