<?xml version="1.0" standalone="no"?>
<!DOCTYPE svg PUBLIC "-//W3C//DTD SVG 20010904//EN"
 "http://www.w3.org/TR/2001/REC-SVG-20010904/DTD/svg10.dtd">
<svg version="1.0" xmlns="http://www.w3.org/2000/svg"
 width="912.000000pt" height="912.000000pt" viewBox="0 0 912.000000 912.000000"
 preserveAspectRatio="xMidYMid meet">
<metadata>
Created by potrace 1.14, written by Peter Selinger 2001-2017
</metadata>
<g transform="translate(0.000000,912.000000) scale(0.100000,-0.100000)"
fill="#000000" stroke="none">
<path d="M963 7592 l-963 -967 0 -1239 0 -1239 60 -58 c33 -31 60 -56 60 -55
0 2 21 -17 48 -43 26 -25 87 -82 136 -126 48 -44 100 -91 115 -105 25 -23 200
-184 277 -255 18 -16 74 -68 126 -115 51 -47 124 -114 163 -150 38 -36 85 -79
103 -95 19 -17 55 -49 80 -73 26 -24 79 -73 118 -109 46 -41 70 -71 68 -81 -6
-29 -94 -396 -101 -422 -3 -14 -7 -29 -8 -35 -2 -5 -10 -37 -18 -70 -9 -33
-18 -71 -20 -85 -3 -14 -12 -49 -20 -78 -9 -29 -16 -54 -16 -57 -1 -7 -5 -27
-42 -180 -17 -71 -33 -137 -35 -145 -1 -8 -21 -89 -44 -180 -62 -250 -92 -373
-95 -390 -2 -8 -4 -15 -5 -15 -1 0 -3 -10 -6 -23 -2 -13 -22 -97 -44 -186 -46
-188 -46 -190 -22 -176 21 12 84 39 294 129 226 97 232 99 239 98 3 -1 12 3
20 9 8 7 91 44 184 84 94 40 195 83 225 97 30 14 60 26 65 27 6 1 30 12 55 23
25 11 68 31 95 43 28 12 64 27 80 35 17 7 59 25 95 40 36 15 93 40 128 56 35
16 67 29 71 29 5 0 28 10 52 23 25 12 49 23 54 24 6 1 35 13 65 26 30 14 58
25 63 26 4 0 20 7 36 15 28 15 30 14 68 -22 22 -20 77 -71 122 -112 45 -41
109 -100 141 -130 33 -30 96 -89 141 -130 93 -85 96 -88 245 -226 60 -56 123
-113 139 -128 33 -31 200 -185 285 -264 l55 -52 648 0 c498 1 652 3 662 13 7
7 56 53 110 102 54 50 113 104 130 120 18 17 70 64 115 105 45 41 104 95 130
120 26 25 85 79 131 120 45 41 100 91 121 111 21 20 74 69 118 109 45 40 103
94 130 119 26 25 90 84 141 131 51 47 105 96 120 110 15 14 69 63 120 110 51
47 111 103 134 125 24 22 72 67 109 99 36 32 83 75 104 95 20 20 82 77 137
127 55 51 116 107 136 125 20 19 65 60 100 93 104 95 260 239 296 274 19 17
36 32 38 32 2 0 18 15 37 33 31 30 230 215 289 268 55 49 214 195 245 224 17
17 73 68 124 115 51 47 107 99 124 115 18 17 74 68 125 115 51 47 112 102 135
123 22 22 72 67 109 100 37 34 98 90 134 125 36 34 67 62 69 62 1 0 18 16 38
35 l36 35 0 1213 0 1212 -992 993 -992 992 -700 0 -701 0 -55 -51 c-51 -47
-208 -192 -269 -248 -49 -45 -225 -206 -257 -236 -17 -16 -74 -68 -124 -115
-51 -47 -107 -98 -125 -115 -18 -16 -55 -50 -81 -74 -62 -56 -169 -154 -211
-193 -39 -37 -18 -49 -201 119 -18 17 -69 64 -114 104 -44 41 -98 90 -118 109
-21 19 -77 71 -125 115 -48 44 -102 94 -120 110 -55 51 -237 219 -264 243 -14
13 -67 61 -118 108 -50 47 -101 94 -114 105 -21 18 -44 19 -753 19 l-731 -1
-962 -967z m1863 -787 c48 -44 99 -91 114 -105 15 -14 71 -65 125 -115 54 -49
118 -108 141 -130 23 -22 79 -74 125 -115 45 -41 99 -91 119 -110 21 -19 81
-75 135 -125 54 -49 113 -103 130 -120 60 -55 217 -200 244 -224 14 -13 73
-68 131 -121 58 -53 119 -110 135 -125 131 -119 215 -197 256 -236 58 -56 72
-62 91 -41 8 10 66 64 128 122 62 58 128 119 146 135 17 17 73 68 124 115 51
47 116 106 144 132 28 26 54 48 59 48 4 0 7 8 7 17 0 9 2 14 5 11 3 -3 23 11
44 31 21 20 85 79 141 131 57 52 122 113 146 135 23 22 82 76 129 120 123 113
150 138 266 247 57 53 114 105 127 116 25 22 225 207 280 260 39 37 47 39 64
12 7 -11 16 -20 21 -20 4 0 22 -15 40 -32 19 -18 75 -71 126 -118 51 -47 115
-105 141 -130 26 -25 85 -79 130 -120 45 -41 99 -91 119 -110 21 -19 68 -63
107 -98 38 -35 112 -103 164 -152 52 -48 115 -106 140 -129 l45 -41 1 -517 0
-518 -46 -45 c-25 -25 -75 -72 -111 -105 -36 -33 -113 -103 -170 -156 -57 -53
-128 -119 -158 -145 -29 -27 -70 -65 -91 -84 -21 -19 -79 -73 -130 -120 -118
-108 -126 -115 -251 -231 -57 -53 -126 -116 -153 -140 -27 -24 -68 -62 -91
-84 -23 -22 -77 -71 -120 -110 -42 -38 -94 -86 -114 -105 -21 -19 -81 -75
-135 -125 -159 -146 -169 -156 -269 -248 -52 -48 -104 -96 -115 -105 -11 -10
-69 -63 -128 -117 -59 -55 -122 -113 -140 -130 -18 -16 -72 -66 -120 -110 -48
-44 -109 -100 -136 -125 -27 -25 -75 -70 -108 -100 -32 -30 -88 -82 -125 -115
-37 -33 -88 -79 -113 -103 l-45 -43 -35 33 c-20 18 -50 47 -67 63 -17 17 -51
48 -75 69 -25 22 -92 83 -150 137 -58 53 -119 110 -136 125 -17 16 -73 67
-124 114 -51 47 -107 98 -124 113 -103 94 -191 175 -213 197 -15 14 -60 55
-101 92 -74 66 -75 67 -103 52 -16 -8 -32 -14 -36 -14 -8 0 -68 -17 -93 -27
-19 -8 -18 -7 -60 -17 -19 -5 -39 -12 -45 -16 -9 -6 -28 -13 -85 -27 -8 -2
-19 -5 -25 -6 -5 -2 -41 -14 -80 -27 -38 -13 -72 -25 -75 -25 -3 -1 -25 -7
-50 -15 -25 -7 -49 -15 -55 -16 -5 -1 -37 -12 -70 -23 -33 -12 -67 -23 -75
-26 -8 -2 -46 -13 -85 -25 -74 -24 -81 -24 -78 0 1 8 4 33 7 55 5 43 9 66 27
185 6 41 12 84 14 95 2 11 6 35 9 54 4 19 9 55 11 80 2 25 5 46 5 46 3 0 20
108 26 160 2 22 6 51 9 65 3 14 7 43 10 65 3 22 12 77 19 123 11 65 11 84 1
90 -7 4 -46 38 -88 75 -41 37 -86 77 -98 88 -13 11 -49 42 -79 69 -30 27 -64
57 -76 67 -12 10 -52 45 -89 78 -37 33 -90 80 -119 105 -28 25 -66 59 -83 76
-18 18 -33 30 -33 28 0 -3 -13 8 -28 23 -15 15 -44 42 -63 58 -46 40 -185 163
-223 198 l-31 27 -1 518 0 517 31 30 c17 17 60 55 96 87 35 31 76 67 90 80
103 93 189 170 217 193 19 16 51 44 72 64 33 32 112 102 176 158 18 15 128
114 200 178 12 11 48 43 81 72 32 29 74 66 92 83 19 17 38 29 42 28 4 -2 46
-39 95 -83z"/>
</g>
</svg>
