<svg width="90" height="43" viewBox="0 0 90 43" fill="none" xmlns="http://www.w3.org/2000/svg">
<path d="M11.0243 9.12737C7.94873 12.7775 6.02227 17.036 4.53518 21.5311C3.21707 25.4854 2.60872 29.4735 3.38606 33.6306C3.45366 34.0023 2.9129 34.6107 2.50733 34.8473C2.30454 34.9487 1.62859 34.5093 1.39201 34.1375C-0.162677 31.8393 -0.196475 29.2369 0.242893 26.6683C1.93277 17.4754 5.41391 9.16117 12.3086 2.57065C13.4577 1.48913 14.6744 0.441406 16.5333 0.441406C18.2908 0.441406 19.1019 1.21875 18.3922 2.90862C17.75 4.46331 16.8713 5.88281 16.0263 7.3361C15.2828 8.58661 14.5392 9.83712 13.6943 11.02C10.6525 15.2785 12.5114 19.6384 15.8235 22.2746C18.257 24.2011 20.7242 25.9923 23.1576 27.9188C24.0363 28.5947 24.9489 29.3045 25.6586 30.1832C25.9966 30.5888 25.8614 31.3661 25.9628 31.9745C25.3545 32.0421 24.6109 32.3463 24.1715 32.1097C23.1576 31.5351 22.2789 30.724 21.3663 29.9804C18.4936 27.7498 15.5532 25.5868 12.7818 23.2209C9.40202 20.3143 7.61075 14.6364 10.6863 9.93851C10.7877 9.73572 10.8891 9.43155 11.0243 9.12737Z" fill="white"/>
<path d="M60.4704 22.0715C60.0648 23.1192 59.8282 24.2345 59.2537 25.1471C58.5101 26.33 57.7328 27.7833 56.5836 28.324C55.1979 29 53.6433 28.2902 52.5955 26.9046C52.19 26.3638 51.7506 25.8906 51.2436 25.2823C50.3987 25.9582 49.6552 26.7356 48.7426 27.2425C47.8639 27.7495 46.85 28.2565 45.836 28.3578C42.9295 28.6282 41.51 26.4314 42.7605 23.7276C44.1124 20.821 46.5458 19.6719 50.2297 20.145C50.5677 16.7653 50.8381 13.3517 51.2774 9.97199C51.4464 8.65389 51.852 7.33579 52.4603 6.15287C52.7307 5.64591 53.7447 5.51072 54.4206 5.20654C54.6234 5.88249 55.198 6.72743 54.9614 7.23439C52.9673 12.0674 53.6433 17.0695 53.8798 22.0715C53.8798 22.3419 53.9812 22.6461 54.1164 22.8826C54.4882 23.5924 54.8938 24.2683 55.2993 24.9781C55.8739 24.3697 56.3809 23.6938 57.023 23.1868C58.8481 21.7335 60.6731 20.2802 62.5996 18.9621C62.7686 18.8607 63.8839 19.6043 63.9853 20.0775C64.3233 21.8687 64.5937 23.6938 64.5937 25.5189C64.5937 26.2624 63.8163 27.0059 63.4107 27.7495C62.7686 27.2087 61.7885 26.7694 61.5181 26.0934C61.0787 24.9105 61.1125 23.5924 60.9435 22.3081C60.8083 22.2405 60.6393 22.1729 60.4704 22.0715ZM49.351 23.3558C47.3907 22.0377 45.8698 22.9502 45.5995 25.4851C47.4921 25.9244 48.3033 24.5725 49.351 23.3558Z" fill="white"/>
<path d="M70.5416 24.8766C69.7643 24.7415 69.1897 24.6401 68.5814 24.5387C66.5873 24.2007 66.0465 23.5247 66.1479 21.4631C66.2155 20.0098 67.1281 19.2663 68.8517 19.0635C69.5277 18.9959 70.1698 18.7255 70.812 18.4551C72.3667 17.8468 73.4144 18.5565 73.5158 20.1788C73.7186 24.6401 74.1579 29.1351 74.1241 33.5964C74.0904 37.0099 72.806 40.0855 69.6629 42.012C67.4322 43.3977 63.7483 43.2287 61.6867 41.674C60.2672 40.5925 60.2672 38.666 62.0922 36.7734C62.295 37.1789 62.4978 37.5845 62.7344 37.9563C64.796 40.7953 68.0744 40.6939 69.8995 37.6859C71.4203 35.1511 71.2852 32.2783 71.1838 29.4731C71.1162 27.986 70.7782 26.4989 70.5416 24.8766ZM69.5277 20.483C68.8855 21.1251 68.2772 21.4631 68.142 21.9363C68.0744 22.2066 68.8179 23.0516 69.0207 22.984C69.5615 22.8488 70.1022 22.4094 70.474 21.9701C70.5416 21.8687 70.0008 21.2265 69.5277 20.483Z" fill="white"/>
<path d="M89.4684 22.4428C89.5022 25.6874 87.9137 27.6476 84.7706 28.2222C83.4525 28.4588 82.0668 28.8981 80.7825 28.6953C79.6334 28.5264 78.2139 27.918 77.5041 27.0393C75.0707 23.9975 76.7606 17.9477 80.3093 16.4268C83.9594 14.906 89.536 17.238 89.4684 22.4428ZM87.5082 23.0512C86.8998 21.8007 86.5956 20.6515 85.8859 19.908C84.7368 18.6913 81.9992 18.5561 80.8501 19.3672C79.4306 20.3474 78.687 22.7132 79.2278 24.4707C79.6334 25.8902 80.5121 26.5661 81.9654 26.2281C83.2159 25.924 84.5002 25.6536 85.6493 25.079C86.3591 24.6734 86.8322 23.7947 87.5082 23.0512Z" fill="white"/>
<path d="M35.4261 20.4158C37.9271 20.382 39.8874 22.6126 39.5156 25.0799C39.2114 27.3105 38.1637 29.1356 36.271 30.3523C34.1418 31.738 31.3366 30.724 30.4578 28.392C29.1059 24.7081 32.0463 20.213 35.4261 20.4158ZM36.3724 24.3363C36.3048 24.2349 36.0344 23.5928 35.6627 23.4576C34.7839 23.221 33.601 24.7419 33.6686 26.06C33.7024 26.4994 33.9728 27.2429 34.277 27.3105C35.2909 27.5809 36.3048 26.2966 36.3724 24.3363Z" fill="white"/>
<path d="M64.4245 13.4189C65.1343 14.3653 66.0468 15.075 65.9116 15.4468C65.7088 16.0552 64.8977 16.7311 64.2217 16.8663C63.85 16.9677 62.8022 15.9538 62.8698 15.6496C63.0388 14.9736 63.7148 14.3653 64.4245 13.4189Z" fill="white"/>
</svg>
