<svg width="57" height="50" viewBox="0 0 57 50" fill="none" xmlns="http://www.w3.org/2000/svg">
<path d="M39.7413 10.3974L46.3494 16.4972L46.3494 23.013L28.4196 39.5102L21.5804 33.2256L15.6192 35.1202L16.5897 28.6507L10.2126 23.013L10.2126 16.4972L17.0518 10.3974L28.4196 20.8411L39.7413 10.3974ZM35.6747 -1.336e-08L28.4196 6.65435L21.1645 -7.92602e-09L12.061 -4.51679e-09L4.5341e-09 12.1072L1.03315e-08 27.5878L8.50278 35.3975L5.36045 48.2441L17.0056 43.2071L24.3531 49.9539L32.3938 49.9539L56.7931 27.5416L56.7931 12.3845L44.4086 -1.66308e-08L35.6747 -1.336e-08Z" fill="white"/>
<path d="M8.50317 35.3977L5.36084 48.2905L17.0522 43.2535L8.50317 35.3977Z" fill="white"/>
<path d="M44.4086 -3.27078e-09L35.6748 0L39.7414 10.3974L44.4086 -3.27078e-09Z" fill="white"/>
<path d="M35.6745 -2.717e-09L28.4194 6.70056L39.7411 10.3974L35.6745 -2.717e-09Z" fill="white"/>
<path d="M56.7933 27.5878L56.7933 12.4307L46.3496 16.4972L56.7933 27.5878Z" fill="white"/>
<path d="M44.4085 -1.74788e-09L39.7412 10.3974L46.3494 16.4972L44.4085 -1.74788e-09Z" fill="white"/>
<path d="M32.4404 49.9995L56.7935 27.5873L46.3499 23.0125L32.4404 49.9995Z" fill="white"/>
<path d="M56.7933 27.5874L46.3496 16.4968L46.3496 23.0125L56.7933 27.5874Z" fill="white"/>
<path d="M17.0518 43.2531L24.3531 49.9999L28.4196 39.51L17.0518 43.2531Z" fill="white"/>
<path d="M24.353 49.9999L32.3937 49.9999L28.4196 39.51L24.353 49.9999Z" fill="white"/>
<path d="M32.4398 49.9995L46.3492 23.0125L28.4194 39.5097L32.4398 49.9995Z" fill="white"/>
<path d="M17.0518 43.2533L28.4196 39.5103L21.5804 33.2256L17.0518 43.2533Z" fill="white"/>
<path d="M8.50293 35.3971L17.0519 43.253L15.6194 35.1199L8.50293 35.3971Z" fill="white"/>
<path d="M17.0517 43.2533L21.5803 33.2256L15.6191 35.1202L17.0517 43.2533Z" fill="white"/>
<path d="M8.50293 35.3974L15.6194 35.1201L16.5898 28.6506L8.50293 35.3974Z" fill="white"/>
<path d="M1.71327e-09 27.5873L8.50278 35.3969L10.2126 23.0125L1.71327e-09 27.5873Z" fill="white"/>
<path d="M8.50293 35.3969L16.5898 28.6502L10.2127 23.0125L8.50293 35.3969Z" fill="white"/>
<path d="M12.061 -4.51679e-09L4.5341e-09 12.1072L10.2126 16.4972L12.061 -4.51679e-09Z" fill="white"/>
<path d="M0 12.1072L5.79741e-09 27.5878L10.2126 16.4972L0 12.1072Z" fill="white"/>
<path d="M4.15337e-09 27.5874L10.2126 23.0125L10.2126 16.4968L4.15337e-09 27.5874Z" fill="white"/>
<path d="M28.4196 6.70056L21.1645 -1.54021e-09L17.0518 10.3974L28.4196 6.70056Z" fill="white"/>
<path d="M21.1646 -3.40923e-09L12.061 0L17.0518 10.3974L21.1646 -3.40923e-09Z" fill="white"/>
<path d="M12.0613 -6.92229e-10L10.2129 16.4972L17.0521 10.3974L12.0613 -6.92229e-10Z" fill="white"/>
<path d="M39.7411 10.3971L28.4194 6.7002L28.4194 20.8869L39.7411 10.3971Z" fill="white"/>
<path d="M28.4196 6.7002L17.0518 10.3971L28.4196 20.8869L28.4196 6.7002Z" fill="white"/>
<path d="M56.7932 12.4307L44.4087 0L46.3495 16.4972L56.7932 12.4307Z" fill="white"/>
</svg>
