<svg width="87" height="82" viewBox="0 0 87 82" fill="none" xmlns="http://www.w3.org/2000/svg">
<path d="M27.2158 3.32939C27.2483 3.05517 27.497 2.85924 27.7712 2.89178C28.0455 2.92431 28.2414 3.17298 28.2088 3.4472L27.2158 3.32939ZM65.2924 75.2255C65.2457 75.4977 64.9871 75.6804 64.715 75.6336L60.2799 74.8719C60.0078 74.8252 59.825 74.5667 59.8718 74.2945C59.9185 74.0223 60.177 73.8396 60.4492 73.8864L64.3915 74.5634L65.0686 70.6212C65.1153 70.349 65.3738 70.1663 65.646 70.213C65.9181 70.2598 66.1009 70.5183 66.0541 70.7904L65.2924 75.2255ZM27.8512 6.97113C27.8281 7.24631 27.5864 7.45071 27.3112 7.42766C27.036 7.40462 26.8316 7.16286 26.8547 6.88769L27.8512 6.97113ZM26.5408 14.018C26.5412 13.7419 26.7653 13.5183 27.0414 13.5186C27.3176 13.5189 27.5412 13.743 27.5408 14.0192L26.5408 14.018ZM27.8839 21.0399C27.9123 21.3146 27.7126 21.5603 27.4379 21.5886C27.1632 21.617 26.9176 21.4173 26.8892 21.1426L27.8839 21.0399ZM28.0664 28.1965C28.0029 27.9277 28.1693 27.6584 28.4381 27.5949C28.7068 27.5314 28.9761 27.6978 29.0396 27.9665L28.0664 28.1965ZM31.1501 34.6492C31.2532 34.9054 31.1291 35.1966 30.8729 35.2997C30.6167 35.4027 30.3255 35.2786 30.2224 35.0224L31.1501 34.6492ZM33.4094 41.4365C33.2677 41.1994 33.345 40.8924 33.582 40.7507C33.8191 40.6091 34.1261 40.6864 34.2677 40.9234L33.4094 41.4365ZM38.2864 46.6738C38.4591 46.8893 38.4245 47.2039 38.209 47.3767C37.9936 47.5494 37.6789 47.5148 37.5062 47.2993L38.2864 46.6738ZM42.2551 52.626C42.0623 52.4283 42.0663 52.1117 42.264 51.9189C42.4618 51.7262 42.7783 51.7302 42.9711 51.9279L42.2551 52.626ZM48.044 56.8479C48.246 57.0362 48.257 57.3526 48.0687 57.5546C47.8803 57.7565 47.564 57.7676 47.362 57.5792L48.044 56.8479ZM52.5606 62.4006C52.3592 62.2118 52.349 61.8953 52.5379 61.6939C52.7268 61.4925 53.0432 61.4823 53.2446 61.6712L52.5606 62.4006ZM58.3301 66.6484C58.5217 66.8471 58.516 67.1637 58.3172 67.3553C58.1184 67.547 57.8018 67.5412 57.6102 67.3424L58.3301 66.6484ZM62.2742 72.6179C62.1017 72.4022 62.1368 72.0876 62.3525 71.9151C62.5682 71.7427 62.8828 71.7778 63.0552 71.9935L62.2742 72.6179ZM28.2088 3.4472C28.0661 4.65046 27.9472 5.82473 27.8512 6.97113L26.8547 6.88769C26.9517 5.72944 27.0718 4.54371 27.2158 3.32939L28.2088 3.4472ZM27.5408 14.0192C27.5379 16.5018 27.6565 18.8368 27.8839 21.0399L26.8892 21.1426C26.658 18.903 26.5379 16.5332 26.5408 14.018L27.5408 14.0192ZM29.0396 27.9665C29.6048 30.3587 30.3161 32.5763 31.1501 34.6492L30.2224 35.0224C29.3695 32.9027 28.643 30.6372 28.0664 28.1965L29.0396 27.9665ZM34.2677 40.9234C35.4905 42.9688 36.8411 44.8711 38.2864 46.6738L37.5062 47.2993C36.0362 45.4658 34.6586 43.5262 33.4094 41.4365L34.2677 40.9234ZM42.9711 51.9279C44.6114 53.6105 46.3138 55.2343 48.044 56.8479L47.362 57.5792C45.6272 55.9613 43.9115 54.3251 42.2551 52.626L42.9711 51.9279ZM53.2446 61.6712C54.9616 63.281 56.6693 64.9258 58.3301 66.6484L57.6102 67.3424C55.9658 65.6369 54.2716 64.0049 52.5606 62.4006L53.2446 61.6712ZM63.0552 71.9935C63.7931 72.9165 64.512 73.8677 65.2079 74.8523L64.3913 75.4295C63.7076 74.4621 63.0006 73.5266 62.2742 72.6179L63.0552 71.9935ZM26.7193 3.27049C26.7844 2.72205 27.2817 2.33019 27.8301 2.39526C28.3786 2.46032 28.7704 2.95766 28.7054 3.5061L26.7193 3.27049ZM65.7852 75.3101C65.6917 75.8545 65.1747 76.2199 64.6304 76.1264L55.7602 74.603C55.2159 74.5095 54.8504 73.9925 54.9439 73.4482C55.0374 72.9038 55.5545 72.5384 56.0988 72.6319L63.9833 73.986L65.3375 66.1015C65.431 65.5572 65.948 65.1917 66.4923 65.2852C67.0367 65.3787 67.4021 65.8957 67.3086 66.44L65.7852 75.3101ZM28.3494 7.01286C28.3033 7.56321 27.8198 7.97201 27.2695 7.92592C26.7191 7.87983 26.3103 7.39632 26.3564 6.84596L28.3494 7.01286ZM26.0408 14.0174C26.0415 13.4651 26.4897 13.0179 27.042 13.0186C27.5943 13.0193 28.0415 13.4675 28.0408 14.0198L26.0408 14.0174ZM28.3813 20.9886C28.438 21.538 28.0386 22.0293 27.4892 22.086C26.9399 22.1427 26.4486 21.7433 26.3918 21.194L28.3813 20.9886ZM27.5798 28.3114C27.4528 27.7739 27.7856 27.2353 28.3231 27.1083C28.8606 26.9813 29.3992 27.3141 29.5262 27.8516L27.5798 28.3114ZM31.614 34.4625C31.8201 34.9749 31.5719 35.5574 31.0595 35.7635C30.5471 35.9697 29.9647 35.7214 29.7585 35.2091L31.614 34.4625ZM32.9802 41.693C32.6969 41.219 32.8514 40.6049 33.3255 40.3216C33.7995 40.0382 34.4135 40.1928 34.6969 40.6668L32.9802 41.693ZM38.6765 46.3611C39.022 46.792 38.9527 47.4213 38.5218 47.7668C38.0909 48.1122 37.4615 48.043 37.1161 47.6121L38.6765 46.3611ZM41.897 52.975C41.5115 52.5796 41.5196 51.9464 41.915 51.5609C42.3105 51.1754 42.9436 51.1834 43.3291 51.5789L41.897 52.975ZM48.3851 56.4822C48.789 56.8589 48.811 57.4917 48.4343 57.8956C48.0577 58.2995 47.4249 58.3215 47.021 57.9449L48.3851 56.4822ZM52.2186 62.7654C51.8158 62.3876 51.7954 61.7548 52.1731 61.3519C52.5509 60.949 53.1837 60.9286 53.5866 61.3064L52.2186 62.7654ZM58.69 66.3013C59.0734 66.6989 59.0618 67.332 58.6642 67.7153C58.2666 68.0986 57.6336 68.0871 57.2502 67.6895L58.69 66.3013ZM61.8836 72.9301C61.5387 72.4987 61.6089 71.8695 62.0403 71.5246C62.4717 71.1797 63.1009 71.2499 63.4458 71.6813L61.8836 72.9301ZM28.7054 3.5061C28.5633 4.70383 28.4449 5.87238 28.3494 7.01286L26.3564 6.84596C26.4539 5.68179 26.5746 4.49033 26.7193 3.27049L28.7054 3.5061ZM28.0408 14.0198C28.0379 16.4861 28.1557 18.8037 28.3813 20.9886L26.3918 21.194C26.1587 18.936 26.0378 16.5489 26.0408 14.0174L28.0408 14.0198ZM29.5262 27.8516C30.0856 30.2195 30.7894 32.4131 31.614 34.4625L29.7585 35.2091C28.8963 33.0659 28.1622 30.7764 27.5798 28.3114L29.5262 27.8516ZM34.6969 40.6668C35.9064 42.6902 37.2435 44.5737 38.6765 46.3611L37.1161 47.6121C35.6338 45.7632 34.2426 43.8048 32.9802 41.693L34.6969 40.6668ZM43.3291 51.5789C44.9613 53.2532 46.6572 54.8708 48.3851 56.4822L47.021 57.9449C45.2839 56.3248 43.5616 54.6825 41.897 52.975L43.3291 51.5789ZM53.5866 61.3064C55.3066 62.9191 57.021 64.5702 58.69 66.3013L57.2502 67.6895C55.6141 65.9924 53.9266 64.3669 52.2186 62.7654L53.5866 61.3064ZM63.4458 71.6813C64.1894 72.6114 64.9143 73.5706 65.6162 74.5637L63.983 75.7181C63.3053 74.7593 62.6043 73.8316 61.8836 72.9301L63.4458 71.6813Z" fill="white"/>
</svg>
