<svg width="96" height="96" viewBox="0 0 96 96" fill="none" xmlns="http://www.w3.org/2000/svg">
<path d="M4.84934 38.1073C4.58605 38.1905 4.4401 38.4715 4.52335 38.7348C4.60661 38.998 4.88754 39.144 5.15083 39.0607L4.84934 38.1073ZM88.3924 63.7844C88.651 63.6876 88.7822 63.3994 88.6853 63.1408L87.1074 58.9265C87.0106 58.6679 86.7225 58.5368 86.4638 58.6336C86.2052 58.7304 86.0741 59.0186 86.1709 59.2772L87.5735 63.0232L83.8275 64.4258C83.5689 64.5226 83.4377 64.8108 83.5345 65.0694C83.6314 65.328 83.9195 65.4591 84.1781 65.3623L88.3924 63.7844ZM8.28873 38.1183C8.55436 38.0429 8.70852 37.7663 8.63306 37.5007C8.5576 37.2351 8.28109 37.0809 8.01546 37.1564L8.28873 38.1183ZM14.3885 35.5707C14.1184 35.6279 13.9457 35.8933 14.0029 36.1634C14.0601 36.4336 14.3255 36.6062 14.5957 36.549L14.3885 35.5707ZM20.9766 35.4642C21.2505 35.4297 21.4447 35.1796 21.4101 34.9056C21.3756 34.6317 21.1255 34.4375 20.8515 34.4721L20.9766 35.4642ZM27.4091 33.9711C27.1331 33.9778 26.9147 34.2069 26.9213 34.483C26.9279 34.7591 27.1571 34.9775 27.4332 34.9708L27.4091 33.9711ZM33.9045 35.1932C34.1794 35.2195 34.4236 35.0181 34.4499 34.7432C34.4763 34.4683 34.2748 34.2241 33.9999 34.1977L33.9045 35.1932ZM40.5142 35.2571C40.2453 35.1946 39.9766 35.362 39.9141 35.631C39.8516 35.9 40.0191 36.1687 40.288 36.2312L40.5142 35.2571ZM46.4658 38.1107C46.7241 38.2083 47.0127 38.0781 47.1103 37.8197C47.2079 37.5614 47.0776 37.2729 46.8193 37.1753L46.4658 38.1107ZM52.8294 39.8741C52.5843 39.7468 52.2825 39.8423 52.1552 40.0874C52.028 40.3325 52.1234 40.6343 52.3685 40.7616L52.8294 39.8741ZM57.9768 44.0188C58.2096 44.1673 58.5187 44.0989 58.6672 43.8661C58.8157 43.6333 58.7473 43.3242 58.5145 43.1757L57.9768 44.0188ZM63.9375 46.8652C63.7129 46.7045 63.4006 46.7564 63.24 46.981C63.0793 47.2056 63.1312 47.5179 63.3558 47.6785L63.9375 46.8652ZM68.6209 51.5336C68.8429 51.6978 69.156 51.651 69.3202 51.429C69.4845 51.207 69.4376 50.8939 69.2156 50.7296L68.6209 51.5336ZM74.4873 54.5712C74.262 54.4115 73.95 54.4647 73.7903 54.69C73.6306 54.9153 73.6837 55.2273 73.909 55.387L74.4873 54.5712ZM79.3513 59.0485C79.5849 59.1957 79.8937 59.1257 80.0409 58.8921C80.1881 58.6585 80.1181 58.3497 79.8845 58.2025L79.3513 59.0485ZM85.5077 61.4411C85.2625 61.314 84.9608 61.4097 84.8337 61.6549C84.7066 61.9001 84.8023 62.2018 85.0475 62.3289L85.5077 61.4411ZM5.15083 39.0607C6.21554 38.7241 7.2613 38.4102 8.28873 38.1183L8.01546 37.1564C6.97832 37.451 5.92315 37.7677 4.84934 38.1073L5.15083 39.0607ZM14.5957 36.549C16.812 36.0798 18.9363 35.7213 20.9766 35.4642L20.8515 34.4721C18.7823 34.7328 16.6306 35.096 14.3885 35.5707L14.5957 36.549ZM27.4332 34.9708C29.6959 34.9164 31.8483 34.9961 33.9045 35.1932L33.9999 34.1977C31.903 33.9967 29.7107 33.9158 27.4091 33.9711L27.4332 34.9708ZM40.288 36.2312C42.446 36.7323 44.4979 37.3671 46.4658 38.1107L46.8193 37.1753C44.8121 36.4168 42.7177 35.7688 40.5142 35.2571L40.288 36.2312ZM52.3685 40.7616C54.2972 41.7632 56.1578 42.8586 57.9768 44.0188L58.5145 43.1757C56.6756 42.0029 54.7892 40.8918 52.8294 39.8741L52.3685 40.7616ZM63.3558 47.6785C65.1187 48.9396 66.8636 50.2336 68.6209 51.5336L69.2156 50.7296C67.4604 49.4312 65.7084 48.1319 63.9375 46.8652L63.3558 47.6785ZM73.909 55.387C75.6797 56.6423 77.4858 57.8727 79.3513 59.0485L79.8845 58.2025C78.0387 57.0391 76.2481 55.8195 74.4873 54.5712L73.909 55.387ZM85.0475 62.3289C86.0146 62.8302 87.0011 63.312 88.0099 63.7712L88.4242 62.8611C87.4318 62.4093 86.4605 61.935 85.5077 61.4411L85.0475 62.3289ZM4.6986 37.6305C4.17201 37.797 3.88011 38.3589 4.04662 38.8855C4.21312 39.4121 4.77499 39.704 5.30157 39.5375L4.6986 37.6305ZM88.5677 64.2526C89.085 64.059 89.3472 63.4827 89.1536 62.9655L85.9978 54.5369C85.8041 54.0197 85.2278 53.7574 84.7106 53.9511C84.1934 54.1447 83.9311 54.721 84.1248 55.2382L86.9299 62.7303L79.4379 65.5355C78.9206 65.7291 78.6583 66.3054 78.852 66.8226C79.0457 67.3398 79.6219 67.6021 80.1392 67.4085L88.5677 64.2526ZM8.42536 38.5993C8.95662 38.4484 9.26495 37.8953 9.11403 37.3641C8.96311 36.8328 8.41009 36.5245 7.87882 36.6754L8.42536 38.5993ZM14.285 35.0815C13.7447 35.1959 13.3994 35.7267 13.5138 36.267C13.6282 36.8073 14.1589 37.1526 14.6992 37.0382L14.285 35.0815ZM21.0391 35.9603C21.587 35.8912 21.9753 35.3911 21.9062 34.8431C21.8372 34.2952 21.337 33.9069 20.789 33.976L21.0391 35.9603ZM27.3971 33.4713C26.845 33.4845 26.4082 33.9429 26.4214 34.495C26.4347 35.0471 26.8931 35.484 27.4452 35.4707L27.3971 33.4713ZM33.8568 35.6909C34.4066 35.7436 34.895 35.3407 34.9477 34.7909C35.0004 34.2411 34.5974 33.7527 34.0476 33.7L33.8568 35.6909ZM40.6273 34.77C40.0894 34.6451 39.552 34.9799 39.4271 35.5179C39.3021 36.0559 39.637 36.5933 40.1749 36.7182L40.6273 34.77ZM46.2891 38.5784C46.8057 38.7737 47.3828 38.5131 47.578 37.9965C47.7732 37.4799 47.5127 36.9028 46.996 36.7076L46.2891 38.5784ZM53.0598 39.4304C52.5697 39.1758 51.966 39.3668 51.7115 39.857C51.457 40.3471 51.6479 40.9508 52.1381 41.2053L53.0598 39.4304ZM57.7079 44.4404C58.1736 44.7374 58.7918 44.6006 59.0888 44.135C59.3858 43.6694 59.249 43.0511 58.7834 42.7542L57.7079 44.4404ZM64.2284 46.4585C63.7792 46.1372 63.1546 46.2409 62.8333 46.6901C62.512 47.1393 62.6157 47.7639 63.0649 48.0852L64.2284 46.4585ZM68.3236 51.9355C68.7676 52.264 69.3938 52.1703 69.7222 51.7263C70.0507 51.2823 69.957 50.6561 69.513 50.3277L68.3236 51.9355ZM74.7765 54.1633C74.3259 53.8439 73.7018 53.9503 73.3824 54.4008C73.063 54.8514 73.1693 55.4756 73.6198 55.7949L74.7765 54.1633ZM79.0847 59.4715C79.5519 59.7659 80.1694 59.6259 80.4639 59.1587C80.7584 58.6914 80.6183 58.074 80.1511 57.7795L79.0847 59.4715ZM85.7378 60.9972C85.2475 60.743 84.6439 60.9345 84.3898 61.4248C84.1356 61.9151 84.3271 62.5186 84.8174 62.7728L85.7378 60.9972ZM5.30157 39.5375C6.36174 39.2023 7.40279 38.8898 8.42536 38.5993L7.87882 36.6754C6.83683 36.9714 5.77696 37.2896 4.6986 37.6305L5.30157 39.5375ZM14.6992 37.0382C16.9027 36.5717 19.0134 36.2156 21.0391 35.9603L20.789 33.976C18.7053 34.2386 16.5399 34.6042 14.285 35.0815L14.6992 37.0382ZM27.4452 35.4707C29.6885 35.4167 31.8209 35.4957 33.8568 35.6909L34.0476 33.7C31.9303 33.4971 29.7181 33.4154 27.3971 33.4713L27.4452 35.4707ZM40.1749 36.7182C42.3101 37.214 44.3408 37.8422 46.2891 38.5784L46.996 36.7076C44.9692 35.9417 42.8535 35.287 40.6273 34.77L40.1749 36.7182ZM52.1381 41.2053C54.0512 42.1988 55.8989 43.2865 57.7079 44.4404L58.7834 42.7542C56.9346 41.575 55.0352 40.4562 53.0598 39.4304L52.1381 41.2053ZM63.0649 48.0852C64.8239 49.3434 66.5652 50.6348 68.3236 51.9355L69.513 50.3277C67.7588 49.03 66.0032 47.728 64.2284 46.4585L63.0649 48.0852ZM73.6198 55.7949C75.3955 57.0537 77.2094 58.2895 79.0847 59.4715L80.1511 57.7795C78.3151 56.6223 76.5323 55.408 74.7765 54.1633L73.6198 55.7949ZM84.8174 62.7728C85.7916 63.2778 86.7858 63.7634 87.8028 64.2263L88.6313 62.406C87.6471 61.958 86.6835 61.4874 85.7378 60.9972L84.8174 62.7728Z" fill="white"/>
</svg>
