<svg width="126" height="77" viewBox="0 0 126 77" fill="none" xmlns="http://www.w3.org/2000/svg">
<path d="M24.7547 77C24.7547 74.4137 24.7547 72.1316 24.7547 69.8496C24.7547 65.818 26.824 63.3838 30.8859 62.7753C32.1122 62.5471 33.415 62.471 34.7179 62.471C55.7173 62.471 76.7167 62.471 97.716 62.471C103.387 62.471 108.676 61.1018 113.427 57.983C120.172 53.4949 124.463 47.1813 125.613 39.1941C126.149 35.0864 125.996 30.9788 125.92 26.8711C125.843 14.6241 116.646 3.36602 104.537 0.779699C102.314 0.32329 100.015 0.019017 97.7927 0.019017C74.5707 0.019017 51.4254 -0.0570511 28.2035 0.0950852C16.171 0.171153 7.58736 5.8002 2.37583 16.5258C0.689751 19.9489 0 23.6002 0 27.4036C0 30.2941 0 33.2608 0 36.1514C0 40.7916 0.153275 45.5078 0.0766296 50.1479C-7.62939e-06 53.3428 0.229919 56.4616 0.919678 59.5804C3.0656 68.8607 9.57999 74.8701 19.0067 76.3915C20.9227 76.6957 22.7621 76.7718 24.7547 77Z" fill="#594697"/>
</svg>
